<?xml version="1.0" encoding="UTF-8" standalone="no"?>
<!DOCTYPE svg PUBLIC "-//W3C//DTD SVG 1.1//EN"
 "http://www.w3.org/Graphics/SVG/1.1/DTD/svg11.dtd">
<!-- Generated by graphviz version 2.43.0 (0)
 -->
<!-- Title: fig1.sw Pages: 1 -->
<svg width="268pt" height="285pt"
 viewBox="0.00 0.00 268.00 285.00" xmlns="http://www.w3.org/2000/svg" xmlns:xlink="http://www.w3.org/1999/xlink">
<g id="graph0" class="graph" transform="scale(1 1) rotate(0) translate(4 281)">
<title>fig1.sw</title>
<g id="a_graph0"><a xlink:href="https://github.com/tyoung3/sw" xlink:title="https://github.com/tyoung3/sw">
<polygon fill="#a6a6a6" stroke="transparent" points="-4,4 -4,-281 264,-281 264,4 -4,4"/>
<text text-anchor="middle" x="130" y="-7.8" font-family="Helvetica,sans-Serif" font-size="14.00">https://github.com/tyoung3/sw</text>
</a>
</g>
<g id="clust1" class="cluster">
<title>clusterfig1.sw</title>
<g id="a_clust1"><a xlink:href="fig1.sw" xlink:title="fig1.sw">
<polygon fill="#a6a6a6" stroke="black" points="8,-31 8,-269 252,-269 252,-31 8,-31"/>
<text text-anchor="middle" x="130" y="-253.8" font-family="Helvetica,sans-Serif" font-size="14.00">fig1.sw</text>
</a>
</g>
</g>
<!-- G -->
<g id="node1" class="node">
<title>G</title>
<g id="a_node1"><a xlink:href="https://sw.twyoung.com/docs/html//Gens.html" xlink:title="sw.Gens ">
<path fill="lightblue" stroke="black" d="M169.83,-209.5C169.83,-209.5 234.17,-209.5 234.17,-209.5 238.83,-209.5 243.5,-214.17 243.5,-218.83 243.5,-218.83 243.5,-228.17 243.5,-228.17 243.5,-232.83 238.83,-237.5 234.17,-237.5 234.17,-237.5 169.83,-237.5 169.83,-237.5 165.17,-237.5 160.5,-232.83 160.5,-228.17 160.5,-228.17 160.5,-218.83 160.5,-218.83 160.5,-214.17 165.17,-209.5 169.83,-209.5"/>
<text text-anchor="middle" x="202" y="-219.1" font-family="Helvetica,sans-Serif" font-size="18.00">G Gens</text>
</a>
</g>
</g>
<!-- F -->
<g id="node2" class="node">
<title>F</title>
<g id="a_node2"><a xlink:href="https://sw.twyoung.com/docs/html//Pass.html" xlink:title="sw.Pass ">
<path fill="lightblue" stroke="black" d="M174.33,-124.5C174.33,-124.5 229.67,-124.5 229.67,-124.5 234.33,-124.5 239,-129.17 239,-133.83 239,-133.83 239,-143.17 239,-143.17 239,-147.83 234.33,-152.5 229.67,-152.5 229.67,-152.5 174.33,-152.5 174.33,-152.5 169.67,-152.5 165,-147.83 165,-143.17 165,-143.17 165,-133.83 165,-133.83 165,-129.17 169.67,-124.5 174.33,-124.5"/>
<text text-anchor="middle" x="202" y="-134.1" font-family="Helvetica,sans-Serif" font-size="18.00">F Pass</text>
</a>
</g>
</g>
<!-- G&#45;&gt;F -->
<g id="edge1" class="edge">
<title>G&#45;&gt;F</title>
<g id="a_edge1"><a xlink:title="0">
<path fill="none" stroke="black" d="M202,-209.16C202,-196.63 202,-177.6 202,-162.59"/>
<polygon fill="black" stroke="black" points="205.5,-162.53 202,-152.53 198.5,-162.53 205.5,-162.53"/>
</a>
</g>
<text text-anchor="middle" x="211" y="-176.6" font-family="Times,serif" font-size="18.00" fill="lightblue">2 </text>
<text text-anchor="middle" x="196" y="-158.13" font-family="Times,serif" font-size="18.00">0</text>
<text text-anchor="middle" x="196" y="-194.76" font-family="Times,serif" font-size="18.00">0</text>
</g>
<!-- E -->
<g id="node3" class="node">
<title>E</title>
<g id="a_node3"><a xlink:href="https://sw.twyoung.com/docs/html//Print.html" xlink:title="sw.Print ">
<path fill="lightblue" stroke="black" d="M173.83,-39.5C173.83,-39.5 230.17,-39.5 230.17,-39.5 234.83,-39.5 239.5,-44.17 239.5,-48.83 239.5,-48.83 239.5,-58.17 239.5,-58.17 239.5,-62.83 234.83,-67.5 230.17,-67.5 230.17,-67.5 173.83,-67.5 173.83,-67.5 169.17,-67.5 164.5,-62.83 164.5,-58.17 164.5,-58.17 164.5,-48.83 164.5,-48.83 164.5,-44.17 169.17,-39.5 173.83,-39.5"/>
<text text-anchor="middle" x="202" y="-49.1" font-family="Helvetica,sans-Serif" font-size="18.00">E Print</text>
</a>
</g>
</g>
<!-- F&#45;&gt;E -->
<g id="edge2" class="edge">
<title>F&#45;&gt;E</title>
<g id="a_edge2"><a xlink:title="0">
<path fill="none" stroke="black" d="M202,-124.16C202,-111.63 202,-92.6 202,-77.59"/>
<polygon fill="black" stroke="black" points="205.5,-77.53 202,-67.53 198.5,-77.53 205.5,-77.53"/>
</a>
</g>
<text text-anchor="middle" x="211" y="-91.6" font-family="Times,serif" font-size="18.00" fill="lightblue">1 </text>
<text text-anchor="middle" x="182.5" y="-73.13" font-family="Times,serif" font-size="18.00">IN.0</text>
<text text-anchor="middle" x="173.5" y="-109.76" font-family="Times,serif" font-size="18.00">OUT.1</text>
</g>
<!-- a -->
<g id="node4" class="node">
<title>a</title>
<g id="a_node4"><a xlink:href="https://sw.twyoung.com/docs/html//C.html" xlink:title="sw.C &#160;&quot;ARG...&quot;">
<path fill="lightblue" stroke="black" d="M25.33,-209.5C25.33,-209.5 132.67,-209.5 132.67,-209.5 137.33,-209.5 142,-214.17 142,-218.83 142,-218.83 142,-228.17 142,-228.17 142,-232.83 137.33,-237.5 132.67,-237.5 132.67,-237.5 25.33,-237.5 25.33,-237.5 20.67,-237.5 16,-232.83 16,-228.17 16,-228.17 16,-218.83 16,-218.83 16,-214.17 20.67,-209.5 25.33,-209.5"/>
<text text-anchor="middle" x="79" y="-219.1" font-family="Helvetica,sans-Serif" font-size="18.00">a C &quot;ARG...&quot;</text>
</a>
</g>
</g>
<!-- b -->
<g id="node5" class="node">
<title>b</title>
<g id="a_node5"><a xlink:href="https://sw.twyoung.com/docs/html//D.html" xlink:title="sw.D ">
<path fill="lightblue" stroke="black" d="M61.33,-124.5C61.33,-124.5 96.67,-124.5 96.67,-124.5 101.33,-124.5 106,-129.17 106,-133.83 106,-133.83 106,-143.17 106,-143.17 106,-147.83 101.33,-152.5 96.67,-152.5 96.67,-152.5 61.33,-152.5 61.33,-152.5 56.67,-152.5 52,-147.83 52,-143.17 52,-143.17 52,-133.83 52,-133.83 52,-129.17 56.67,-124.5 61.33,-124.5"/>
<text text-anchor="middle" x="79" y="-134.1" font-family="Helvetica,sans-Serif" font-size="18.00">b D</text>
</a>
</g>
</g>
<!-- a&#45;&gt;b -->
<g id="edge3" class="edge">
<title>a&#45;&gt;b</title>
<g id="a_edge3"><a xlink:title="0">
<path fill="none" stroke="black" d="M79,-209.16C79,-196.63 79,-177.6 79,-162.59"/>
<polygon fill="black" stroke="black" points="82.5,-162.53 79,-152.53 75.5,-162.53 82.5,-162.53"/>
</a>
</g>
<text text-anchor="middle" x="118.5" y="-176.6" font-family="Times,serif" font-size="18.00" fill="lightblue">0 ipType</text>
<text text-anchor="middle" x="73" y="-158.13" font-family="Times,serif" font-size="18.00">0</text>
<text text-anchor="middle" x="73" y="-194.76" font-family="Times,serif" font-size="18.00">0</text>
</g>
</g>
</svg>
