<?xml version="1.0" encoding="UTF-8" standalone="no"?>
<!DOCTYPE svg PUBLIC "-//W3C//DTD SVG 1.1//EN"
 "http://www.w3.org/Graphics/SVG/1.1/DTD/svg11.dtd">
<!-- Generated by graphviz version 2.43.0 (0)
 -->
<!-- Title: postage.sw Pages: 1 -->
<svg width="966pt" height="285pt"
 viewBox="0.00 0.00 966.00 285.00" xmlns="http://www.w3.org/2000/svg" xmlns:xlink="http://www.w3.org/1999/xlink">
<g id="graph0" class="graph" transform="scale(1 1) rotate(0) translate(4 281)">
<title>postage.sw</title>
<g id="a_graph0"><a xlink:href="https://github.com/tyoung3/sw" xlink:title="https://github.com/tyoung3/sw">
<polygon fill="#a6a6a6" stroke="transparent" points="-4,4 -4,-281 962,-281 962,4 -4,4"/>
<text text-anchor="middle" x="479" y="-7.8" font-family="Helvetica,sans-Serif" font-size="14.00">https://github.com/tyoung3/sw</text>
</a>
</g>
<g id="clust1" class="cluster">
<title>clusterpostage.sw</title>
<g id="a_clust1"><a xlink:href="postage.sw" xlink:title="postage.sw">
<polygon fill="#a6a6a6" stroke="black" points="8,-31 8,-269 950,-269 950,-31 8,-31"/>
<text text-anchor="middle" x="479" y="-253.8" font-family="Helvetica,sans-Serif" font-size="14.00">postage.sw</text>
</a>
</g>
</g>
<!-- print -->
<g id="node1" class="node">
<title>print</title>
<g id="a_node1"><a xlink:href="/usr/local/src/html//PrintLabel.html" xlink:title="postage.PrintLabel ">
<path fill="lightblue" stroke="black" d="M451.83,-39.5C451.83,-39.5 588.17,-39.5 588.17,-39.5 592.83,-39.5 597.5,-44.17 597.5,-48.83 597.5,-48.83 597.5,-58.17 597.5,-58.17 597.5,-62.83 592.83,-67.5 588.17,-67.5 588.17,-67.5 451.83,-67.5 451.83,-67.5 447.17,-67.5 442.5,-62.83 442.5,-58.17 442.5,-58.17 442.5,-48.83 442.5,-48.83 442.5,-44.17 447.17,-39.5 451.83,-39.5"/>
<text text-anchor="middle" x="520" y="-49.1" font-family="Helvetica,sans-Serif" font-size="18.00">print PrintLabel</text>
</a>
</g>
</g>
<!-- To -->
<g id="node2" class="node">
<title>To</title>
<g id="a_node2"><a xlink:href="/usr/local/src/html//GetLoc.html" xlink:title="postage.GetLoc &#160;&quot;LA&quot;">
<path fill="lightblue" stroke="black" d="M801.33,-209.5C801.33,-209.5 932.67,-209.5 932.67,-209.5 937.33,-209.5 942,-214.17 942,-218.83 942,-218.83 942,-228.17 942,-228.17 942,-232.83 937.33,-237.5 932.67,-237.5 932.67,-237.5 801.33,-237.5 801.33,-237.5 796.67,-237.5 792,-232.83 792,-228.17 792,-228.17 792,-218.83 792,-218.83 792,-214.17 796.67,-209.5 801.33,-209.5"/>
<text text-anchor="middle" x="867" y="-219.1" font-family="Helvetica,sans-Serif" font-size="18.00">To GetLoc &quot;LA&quot;</text>
</a>
</g>
</g>
<!-- cp -->
<g id="node6" class="node">
<title>cp</title>
<g id="a_node6"><a xlink:href="/usr/local/src/html//ComputePostage.html" xlink:title="postage.ComputePostage ">
<path fill="lightblue" stroke="black" d="M430.83,-124.5C430.83,-124.5 609.17,-124.5 609.17,-124.5 613.83,-124.5 618.5,-129.17 618.5,-133.83 618.5,-133.83 618.5,-143.17 618.5,-143.17 618.5,-147.83 613.83,-152.5 609.17,-152.5 609.17,-152.5 430.83,-152.5 430.83,-152.5 426.17,-152.5 421.5,-147.83 421.5,-143.17 421.5,-143.17 421.5,-133.83 421.5,-133.83 421.5,-129.17 426.17,-124.5 430.83,-124.5"/>
<text text-anchor="middle" x="520" y="-134.1" font-family="Helvetica,sans-Serif" font-size="18.00">cp ComputePostage</text>
</a>
</g>
</g>
<!-- To&#45;&gt;cp -->
<g id="edge2" class="edge">
<title>To&#45;&gt;cp</title>
<g id="a_edge2"><a xlink:title="0">
<path fill="none" stroke="black" d="M812.4,-209.44C750.59,-194.65 649.97,-170.59 584.38,-154.9"/>
<polygon fill="black" stroke="black" points="585.11,-151.47 574.57,-152.55 583.48,-158.28 585.11,-151.47"/>
</a>
</g>
<text text-anchor="middle" x="747.5" y="-176.6" font-family="Times,serif" font-size="18.00" fill="lightblue">3 _</text>
<text text-anchor="middle" x="568.57" y="-158.15" font-family="Times,serif" font-size="18.00">1</text>
<text text-anchor="middle" x="806.4" y="-195.04" font-family="Times,serif" font-size="18.00">0</text>
</g>
<!-- From -->
<g id="node3" class="node">
<title>From</title>
<g id="a_node3"><a xlink:href="/usr/local/src/html//GetLoc.html" xlink:title="postage.GetLoc &#160;&quot;New York&quot;">
<path fill="lightblue" stroke="black" d="M547.83,-209.5C547.83,-209.5 764.17,-209.5 764.17,-209.5 768.83,-209.5 773.5,-214.17 773.5,-218.83 773.5,-218.83 773.5,-228.17 773.5,-228.17 773.5,-232.83 768.83,-237.5 764.17,-237.5 764.17,-237.5 547.83,-237.5 547.83,-237.5 543.17,-237.5 538.5,-232.83 538.5,-228.17 538.5,-228.17 538.5,-218.83 538.5,-218.83 538.5,-214.17 543.17,-209.5 547.83,-209.5"/>
<text text-anchor="middle" x="656" y="-219.1" font-family="Helvetica,sans-Serif" font-size="18.00">From GetLoc &quot;New York&quot;</text>
</a>
</g>
</g>
<!-- From&#45;&gt;cp -->
<g id="edge3" class="edge">
<title>From&#45;&gt;cp</title>
<g id="a_edge3"><a xlink:title="0">
<path fill="none" stroke="black" d="M634.45,-209.35C611.67,-195.45 575.57,-173.41 550.01,-157.82"/>
<polygon fill="black" stroke="black" points="551.81,-154.81 541.45,-152.59 548.16,-160.79 551.81,-154.81"/>
</a>
</g>
<text text-anchor="middle" x="613" y="-176.6" font-family="Times,serif" font-size="18.00" fill="lightblue">2 </text>
<text text-anchor="middle" x="535.45" y="-158.19" font-family="Times,serif" font-size="18.00">0</text>
<text text-anchor="middle" x="628.45" y="-194.95" font-family="Times,serif" font-size="18.00">0</text>
</g>
<!-- Weight -->
<g id="node4" class="node">
<title>Weight</title>
<g id="a_node4"><a xlink:href="/usr/local/src/html//GetWeight.html" xlink:title="postage.GetWeight &#160;&quot;10&quot; &quot;oz&quot;">
<path fill="lightblue" stroke="black" d="M261.33,-209.5C261.33,-209.5 510.67,-209.5 510.67,-209.5 515.33,-209.5 520,-214.17 520,-218.83 520,-218.83 520,-228.17 520,-228.17 520,-232.83 515.33,-237.5 510.67,-237.5 510.67,-237.5 261.33,-237.5 261.33,-237.5 256.67,-237.5 252,-232.83 252,-228.17 252,-228.17 252,-218.83 252,-218.83 252,-214.17 256.67,-209.5 261.33,-209.5"/>
<text text-anchor="middle" x="386" y="-219.1" font-family="Helvetica,sans-Serif" font-size="18.00">Weight GetWeight &quot;10&quot; &quot;oz&quot;</text>
</a>
</g>
</g>
<!-- Weight&#45;&gt;cp -->
<g id="edge4" class="edge">
<title>Weight&#45;&gt;cp</title>
<g id="a_edge4"><a xlink:title="2">
<path fill="none" stroke="orange" d="M407.23,-209.35C429.58,-195.51 464.94,-173.61 490.1,-158.02"/>
<polygon fill="orange" stroke="orange" points="492.21,-160.83 498.87,-152.59 488.52,-154.88 492.21,-160.83"/>
</a>
</g>
<text text-anchor="middle" x="511" y="-176.6" font-family="Times,serif" font-size="18.00" fill="lightblue">1 WeighT</text>
<text text-anchor="middle" x="492.87" y="-158.19" font-family="Times,serif" font-size="18.00">2</text>
<text text-anchor="middle" x="401.23" y="-194.95" font-family="Times,serif" font-size="18.00">0</text>
</g>
<!-- Rates -->
<g id="node5" class="node">
<title>Rates</title>
<g id="a_node5"><a xlink:href="/usr/local/src/html//Rates.html" xlink:title="postage.Rates &#160;&quot;.58&quot; &quot;oz&quot;">
<path fill="lightblue" stroke="black" d="M25.33,-209.5C25.33,-209.5 224.67,-209.5 224.67,-209.5 229.33,-209.5 234,-214.17 234,-218.83 234,-218.83 234,-228.17 234,-228.17 234,-232.83 229.33,-237.5 224.67,-237.5 224.67,-237.5 25.33,-237.5 25.33,-237.5 20.67,-237.5 16,-232.83 16,-228.17 16,-228.17 16,-218.83 16,-218.83 16,-214.17 20.67,-209.5 25.33,-209.5"/>
<text text-anchor="middle" x="125" y="-219.1" font-family="Helvetica,sans-Serif" font-size="18.00">Rates Rates &quot;.58&quot; &quot;oz&quot;</text>
</a>
</g>
</g>
<!-- Rates&#45;&gt;cp -->
<g id="edge5" class="edge">
<title>Rates&#45;&gt;cp</title>
<g id="a_edge5"><a xlink:title="3">
<path fill="none" stroke="orange" d="M182.87,-209.46C230.39,-198.83 299.48,-183.59 360,-171 386.79,-165.43 416.16,-159.57 442.34,-154.44"/>
<polygon fill="orange" stroke="orange" points="443.06,-157.87 452.2,-152.52 441.72,-151 443.06,-157.87"/>
</a>
</g>
<text text-anchor="middle" x="396.5" y="-176.6" font-family="Times,serif" font-size="18.00" fill="lightblue">0 RateT</text>
<text text-anchor="middle" x="446.2" y="-158.12" font-family="Times,serif" font-size="18.00">3</text>
<text text-anchor="middle" x="176.87" y="-195.06" font-family="Times,serif" font-size="18.00">0</text>
</g>
<!-- cp&#45;&gt;print -->
<g id="edge1" class="edge">
<title>cp&#45;&gt;print</title>
<g id="a_edge1"><a xlink:title="0">
<path fill="none" stroke="black" d="M520,-124.16C520,-111.63 520,-92.6 520,-77.59"/>
<polygon fill="black" stroke="black" points="523.5,-77.53 520,-67.53 516.5,-77.53 523.5,-77.53"/>
</a>
</g>
<text text-anchor="middle" x="570.5" y="-91.6" font-family="Times,serif" font-size="18.00" fill="lightblue">4 PostageT</text>
<text text-anchor="middle" x="514" y="-73.13" font-family="Times,serif" font-size="18.00">0</text>
<text text-anchor="middle" x="514" y="-109.76" font-family="Times,serif" font-size="18.00">4</text>
</g>
</g>
</svg>
