<?xml version="1.0" encoding="UTF-8" standalone="no"?>
<!DOCTYPE svg PUBLIC "-//W3C//DTD SVG 1.1//EN"
 "http://www.w3.org/Graphics/SVG/1.1/DTD/svg11.dtd">
<!-- Generated by graphviz version 2.43.0 (0)
 -->
<!-- Title: collate.sw Pages: 1 -->
<svg width="586pt" height="370pt"
 viewBox="0.00 0.00 586.00 370.00" xmlns="http://www.w3.org/2000/svg" xmlns:xlink="http://www.w3.org/1999/xlink">
<g id="graph0" class="graph" transform="scale(1 1) rotate(0) translate(4 366)">
<title>collate.sw</title>
<g id="a_graph0"><a xlink:href="https://github.com/tyoung3/sw/blob/master/nds/collate.sw" xlink:title="https://github.com/tyoung3/sw">
<polygon fill="#a6a6a6" stroke="transparent" points="-4,4 -4,-366 582,-366 582,4 -4,4"/>
<text text-anchor="middle" x="289" y="-7.8" font-family="Helvetica,sans-Serif" font-size="14.00">https://github.com/tyoung3/sw</text>
</a>
</g>
<g id="clust1" class="cluster">
<title>clustercollate.sw</title>
<g id="a_clust1"><a xlink:href="collate.sw.html" xlink:title="collate.sw">
<polygon fill="#a6a6a6" stroke="black" points="8,-31 8,-354 570,-354 570,-31 8,-31"/>
<text text-anchor="middle" x="289" y="-338.8" font-family="Helvetica,sans-Serif" font-size="14.00">collate.sw</text>
</a>
</g>
</g>
<!-- Miss1 -->
<g id="node1" class="node">
<title>Miss1</title>
<g id="a_node1"><a xlink:href="/home/tyoung3/go/src/github.com/tyoung3/sw/docs/html/Print.html" xlink:title="sw.Print ">
<path fill="lightblue" stroke="black" d="M25.33,-39.5C25.33,-39.5 122.67,-39.5 122.67,-39.5 127.33,-39.5 132,-44.17 132,-48.83 132,-48.83 132,-58.17 132,-58.17 132,-62.83 127.33,-67.5 122.67,-67.5 122.67,-67.5 25.33,-67.5 25.33,-67.5 20.67,-67.5 16,-62.83 16,-58.17 16,-58.17 16,-48.83 16,-48.83 16,-44.17 20.67,-39.5 25.33,-39.5"/>
<text text-anchor="middle" x="74" y="-49.1" font-family="Helvetica,sans-Serif" font-size="18.00">Miss1 Print</text>
</a>
</g>
</g>
<!-- Miss0 -->
<g id="node2" class="node">
<title>Miss0</title>
<g id="a_node2"><a xlink:href="/home/tyoung3/go/src/github.com/tyoung3/sw/docs/html/Print.html" xlink:title="sw.Print ">
<path fill="lightblue" stroke="black" d="M159.33,-39.5C159.33,-39.5 256.67,-39.5 256.67,-39.5 261.33,-39.5 266,-44.17 266,-48.83 266,-48.83 266,-58.17 266,-58.17 266,-62.83 261.33,-67.5 256.67,-67.5 256.67,-67.5 159.33,-67.5 159.33,-67.5 154.67,-67.5 150,-62.83 150,-58.17 150,-58.17 150,-48.83 150,-48.83 150,-44.17 154.67,-39.5 159.33,-39.5"/>
<text text-anchor="middle" x="208" y="-49.1" font-family="Helvetica,sans-Serif" font-size="18.00">Miss0 Print</text>
</a>
</g>
</g>
<!-- Match1 -->
<g id="node3" class="node">
<title>Match1</title>
<g id="a_node3"><a xlink:href="/home/tyoung3/go/src/github.com/tyoung3/sw/docs/html/Print.html" xlink:title="sw.Print ">
<path fill="lightblue" stroke="black" d="M293.33,-39.5C293.33,-39.5 404.67,-39.5 404.67,-39.5 409.33,-39.5 414,-44.17 414,-48.83 414,-48.83 414,-58.17 414,-58.17 414,-62.83 409.33,-67.5 404.67,-67.5 404.67,-67.5 293.33,-67.5 293.33,-67.5 288.67,-67.5 284,-62.83 284,-58.17 284,-58.17 284,-48.83 284,-48.83 284,-44.17 288.67,-39.5 293.33,-39.5"/>
<text text-anchor="middle" x="349" y="-49.1" font-family="Helvetica,sans-Serif" font-size="18.00">Match1 Print</text>
</a>
</g>
</g>
<!-- Match0 -->
<g id="node4" class="node">
<title>Match0</title>
<g id="a_node4"><a xlink:href="/home/tyoung3/go/src/github.com/tyoung3/sw/docs/html/Print.html" xlink:title="sw.Print ">
<path fill="lightblue" stroke="black" d="M441.33,-39.5C441.33,-39.5 552.67,-39.5 552.67,-39.5 557.33,-39.5 562,-44.17 562,-48.83 562,-48.83 562,-58.17 562,-58.17 562,-62.83 557.33,-67.5 552.67,-67.5 552.67,-67.5 441.33,-67.5 441.33,-67.5 436.67,-67.5 432,-62.83 432,-58.17 432,-58.17 432,-48.83 432,-48.83 432,-44.17 436.67,-39.5 441.33,-39.5"/>
<text text-anchor="middle" x="497" y="-49.1" font-family="Helvetica,sans-Serif" font-size="18.00">Match0 Print</text>
</a>
</g>
</g>
<!-- G2 -->
<g id="node5" class="node">
<title>G2</title>
<g id="a_node5"><a xlink:href="/home/tyoung3/go/src/github.com/tyoung3/sw/docs/html/Gen.html" xlink:title="sw.Gen &#160;&quot;8&quot; &quot;2&quot; &quot;3&quot;">
<path fill="lightblue" stroke="black" d="M327.33,-294.5C327.33,-294.5 494.67,-294.5 494.67,-294.5 499.33,-294.5 504,-299.17 504,-303.83 504,-303.83 504,-313.17 504,-313.17 504,-317.83 499.33,-322.5 494.67,-322.5 494.67,-322.5 327.33,-322.5 327.33,-322.5 322.67,-322.5 318,-317.83 318,-313.17 318,-313.17 318,-303.83 318,-303.83 318,-299.17 322.67,-294.5 327.33,-294.5"/>
<text text-anchor="middle" x="411" y="-304.1" font-family="Helvetica,sans-Serif" font-size="18.00">G2 Gen &quot;8&quot; &quot;2&quot; &quot;3&quot;</text>
</a>
</g>
</g>
<!-- M -->
<g id="node7" class="node">
<title>M</title>
<g id="a_node7"><a xlink:href="/home/tyoung3/go/src/github.com/tyoung3/sw/docs/html/Merge.html" xlink:title="swutility.Merge ">
<path fill="gold" stroke="black" d="M321.83,-209.5C321.83,-209.5 398.17,-209.5 398.17,-209.5 402.83,-209.5 407.5,-214.17 407.5,-218.83 407.5,-218.83 407.5,-228.17 407.5,-228.17 407.5,-232.83 402.83,-237.5 398.17,-237.5 398.17,-237.5 321.83,-237.5 321.83,-237.5 317.17,-237.5 312.5,-232.83 312.5,-228.17 312.5,-228.17 312.5,-218.83 312.5,-218.83 312.5,-214.17 317.17,-209.5 321.83,-209.5"/>
<text text-anchor="middle" x="360" y="-219.1" font-family="Helvetica,sans-Serif" font-size="18.00">M Merge</text>
</a>
</g>
</g>
<!-- G2&#45;&gt;M -->
<g id="edge5" class="edge">
<title>G2&#45;&gt;M</title>
<g id="a_edge5"><a xlink:title="3">
<path fill="none" stroke="orange" stroke-width="2" d="M402.81,-294.16C394.88,-281.26 382.72,-261.48 373.39,-246.29"/>
<polygon fill="orange" stroke="orange" stroke-width="2" points="376.22,-244.22 368.01,-237.53 370.26,-247.88 376.22,-244.22"/>
</a>
</g>
<text text-anchor="middle" x="412.5" y="-261.6" font-family="Times,serif" font-size="18.00" fill="blue">3 int</text>
<text text-anchor="middle" x="348.51" y="-243.13" font-family="Times,serif" font-size="18.00">IN.1</text>
<text text-anchor="middle" x="396.81" y="-279.76" font-family="Times,serif" font-size="18.00">0</text>
</g>
<!-- G1 -->
<g id="node6" class="node">
<title>G1</title>
<g id="a_node6"><a xlink:href="/home/tyoung3/go/src/github.com/tyoung3/sw/docs/html/Gen.html" xlink:title="sw.Gen &#160;&quot;5&quot; &quot;5&quot; &quot;1&quot;">
<path fill="lightblue" stroke="black" d="M123.33,-294.5C123.33,-294.5 290.67,-294.5 290.67,-294.5 295.33,-294.5 300,-299.17 300,-303.83 300,-303.83 300,-313.17 300,-313.17 300,-317.83 295.33,-322.5 290.67,-322.5 290.67,-322.5 123.33,-322.5 123.33,-322.5 118.67,-322.5 114,-317.83 114,-313.17 114,-313.17 114,-303.83 114,-303.83 114,-299.17 118.67,-294.5 123.33,-294.5"/>
<text text-anchor="middle" x="207" y="-304.1" font-family="Helvetica,sans-Serif" font-size="18.00">G1 Gen &quot;5&quot; &quot;5&quot; &quot;1&quot;</text>
</a>
</g>
</g>
<!-- G1&#45;&gt;M -->
<g id="edge6" class="edge">
<title>G1&#45;&gt;M</title>
<g id="a_edge6"><a xlink:title="0">
<path fill="none" stroke="black" stroke-width="2" d="M231.24,-294.35C257.09,-280.32 298.2,-258.03 326.99,-242.41"/>
<polygon fill="black" stroke="black" stroke-width="2" points="328.75,-245.43 335.87,-237.59 325.41,-239.28 328.75,-245.43"/>
</a>
</g>
<text text-anchor="middle" x="322.5" y="-261.6" font-family="Times,serif" font-size="18.00" fill="blue">2 int</text>
<text text-anchor="middle" x="329.87" y="-243.19" font-family="Times,serif" font-size="18.00">2</text>
<text text-anchor="middle" x="225.24" y="-279.95" font-family="Times,serif" font-size="18.00">0</text>
</g>
<!-- C -->
<g id="node8" class="node">
<title>C</title>
<g id="a_node8"><a xlink:href="/home/tyoung3/go/src/github.com/tyoung3/sw/docs/html/Collate.html" xlink:title="swutility.Collate ">
<path fill="gold" stroke="black" d="M206.83,-124.5C206.83,-124.5 287.17,-124.5 287.17,-124.5 291.83,-124.5 296.5,-129.17 296.5,-133.83 296.5,-133.83 296.5,-143.17 296.5,-143.17 296.5,-147.83 291.83,-152.5 287.17,-152.5 287.17,-152.5 206.83,-152.5 206.83,-152.5 202.17,-152.5 197.5,-147.83 197.5,-143.17 197.5,-143.17 197.5,-133.83 197.5,-133.83 197.5,-129.17 202.17,-124.5 206.83,-124.5"/>
<text text-anchor="middle" x="247" y="-134.1" font-family="Helvetica,sans-Serif" font-size="18.00">C Collate</text>
</a>
</g>
</g>
<!-- M&#45;&gt;C -->
<g id="edge7" class="edge">
<title>M&#45;&gt;C</title>
<g id="a_edge7"><a xlink:title="2">
<path fill="none" stroke="orange" stroke-width="2" d="M342.09,-209.35C323.5,-195.69 294.22,-174.18 273.06,-158.64"/>
<polygon fill="orange" stroke="orange" stroke-width="2" points="274.95,-155.69 264.82,-152.59 270.81,-161.33 274.95,-155.69"/>
</a>
</g>
<text text-anchor="middle" x="325" y="-176.6" font-family="Times,serif" font-size="18.00" fill="blue">1 </text>
<text text-anchor="middle" x="258.82" y="-158.19" font-family="Times,serif" font-size="18.00">1</text>
<text text-anchor="middle" x="348.09" y="-194.95" font-family="Times,serif" font-size="18.00">0</text>
</g>
<!-- C&#45;&gt;Miss1 -->
<g id="edge1" class="edge">
<title>C&#45;&gt;Miss1</title>
<g id="a_edge1"><a xlink:title="0">
<path fill="none" stroke="black" stroke-width="2" d="M215.99,-124.41C203.22,-118.89 188.32,-112.3 175,-106 152.37,-95.29 127.3,-82.51 107.79,-72.36"/>
<polygon fill="black" stroke="black" stroke-width="2" points="109.19,-69.14 98.7,-67.61 105.94,-75.34 109.19,-69.14"/>
</a>
</g>
<text text-anchor="middle" x="196.5" y="-91.6" font-family="Times,serif" font-size="18.00" fill="blue">7 int</text>
<text text-anchor="middle" x="92.7" y="-73.21" font-family="Times,serif" font-size="18.00">0</text>
<text text-anchor="middle" x="187.49" y="-110.01" font-family="Times,serif" font-size="18.00">OUT.5</text>
</g>
<!-- C&#45;&gt;Miss0 -->
<g id="edge2" class="edge">
<title>C&#45;&gt;Miss0</title>
<g id="a_edge2"><a xlink:title="0">
<path fill="none" stroke="black" stroke-width="2" d="M240.73,-124.16C234.73,-111.38 225.55,-91.86 218.44,-76.72"/>
<polygon fill="black" stroke="black" stroke-width="2" points="221.54,-75.09 214.12,-67.53 215.21,-78.07 221.54,-75.09"/>
</a>
</g>
<text text-anchor="middle" x="253.5" y="-91.6" font-family="Times,serif" font-size="18.00" fill="blue">6 int</text>
<text text-anchor="middle" x="180.62" y="-73.13" font-family="Times,serif" font-size="18.00">MISS.0</text>
<text text-anchor="middle" x="274.23" y="-109.76" font-family="Times,serif" font-size="18.00">MISS.4</text>
</g>
<!-- C&#45;&gt;Match1 -->
<g id="edge3" class="edge">
<title>C&#45;&gt;Match1</title>
<g id="a_edge3"><a xlink:title="0">
<path fill="none" stroke="black" stroke-width="2" d="M263.39,-124.16C280.07,-110.59 306.1,-89.41 325.08,-73.97"/>
<polygon fill="black" stroke="black" stroke-width="2" points="327.44,-76.56 332.99,-67.53 323.02,-71.13 327.44,-76.56"/>
</a>
</g>
<text text-anchor="middle" x="331.5" y="-91.6" font-family="Times,serif" font-size="18.00" fill="blue">5 int</text>
<text text-anchor="middle" x="326.99" y="-73.13" font-family="Times,serif" font-size="18.00">0</text>
<text text-anchor="middle" x="257.39" y="-129.76" font-family="Times,serif" font-size="18.00">3</text>
</g>
<!-- C&#45;&gt;Match0 -->
<g id="edge4" class="edge">
<title>C&#45;&gt;Match0</title>
<g id="a_edge4"><a xlink:title="0">
<path fill="none" stroke="black" stroke-width="2" d="M295.42,-124.46C314.68,-119.06 336.98,-112.54 357,-106 389.92,-95.25 426.65,-81.67 454.23,-71.16"/>
<polygon fill="black" stroke="black" stroke-width="2" points="455.49,-74.43 463.58,-67.58 452.99,-67.89 455.49,-74.43"/>
</a>
</g>
<text text-anchor="middle" x="432.5" y="-91.6" font-family="Times,serif" font-size="18.00" fill="blue">4 int</text>
<text text-anchor="middle" x="469.58" y="-73.18" font-family="Times,serif" font-size="18.00">0</text>
<text text-anchor="middle" x="301.42" y="-130.06" font-family="Times,serif" font-size="18.00">2</text>
</g>
<!-- G0 -->
<g id="node9" class="node">
<title>G0</title>
<g id="a_node9"><a xlink:href="/home/tyoung3/go/src/github.com/tyoung3/sw/docs/html/Gen.html" xlink:title="sw.Gen &#160;&quot;12&quot; &quot;1&quot; &quot;2&quot;">
<path fill="lightblue" stroke="black" d="M106.83,-209.5C106.83,-209.5 285.17,-209.5 285.17,-209.5 289.83,-209.5 294.5,-214.17 294.5,-218.83 294.5,-218.83 294.5,-228.17 294.5,-228.17 294.5,-232.83 289.83,-237.5 285.17,-237.5 285.17,-237.5 106.83,-237.5 106.83,-237.5 102.17,-237.5 97.5,-232.83 97.5,-228.17 97.5,-228.17 97.5,-218.83 97.5,-218.83 97.5,-214.17 102.17,-209.5 106.83,-209.5"/>
<text text-anchor="middle" x="196" y="-219.1" font-family="Helvetica,sans-Serif" font-size="18.00">G0 Gen &quot;12&quot; &quot;1&quot; &quot;2&quot;</text>
</a>
</g>
</g>
<!-- G0&#45;&gt;C -->
<g id="edge8" class="edge">
<title>G0&#45;&gt;C</title>
<g id="a_edge8"><a xlink:title="1">
<path fill="none" stroke="green" stroke-width="2" d="M204.19,-209.16C212.12,-196.26 224.28,-176.48 233.61,-161.29"/>
<polygon fill="green" stroke="green" stroke-width="2" points="236.74,-162.88 238.99,-152.53 230.78,-159.22 236.74,-162.88"/>
</a>
</g>
<text text-anchor="middle" x="236" y="-176.6" font-family="Times,serif" font-size="18.00" fill="blue">0 </text>
<text text-anchor="middle" x="232.99" y="-158.13" font-family="Times,serif" font-size="18.00">0</text>
<text text-anchor="middle" x="198.19" y="-194.76" font-family="Times,serif" font-size="18.00">0</text>
</g>
</g>
</svg>
