<?xml version="1.0" encoding="UTF-8" standalone="no"?>
<!DOCTYPE svg PUBLIC "-//W3C//DTD SVG 1.1//EN"
 "http://www.w3.org/Graphics/SVG/1.1/DTD/svg11.dtd">
<!-- Generated by graphviz version 2.43.0 (0)
 -->
<!-- Title: fig2.sw Pages: 1 -->
<svg width="238pt" height="200pt"
 viewBox="0.00 0.00 238.00 200.00" xmlns="http://www.w3.org/2000/svg" xmlns:xlink="http://www.w3.org/1999/xlink">
<g id="graph0" class="graph" transform="scale(1 1) rotate(0) translate(4 196)">
<title>fig2.sw</title>
<g id="a_graph0"><a xlink:href="https://github.com/tyoung3/sw" xlink:title="https://github.com/tyoung3/sw">
<polygon fill="#a6a6a6" stroke="transparent" points="-4,4 -4,-196 234,-196 234,4 -4,4"/>
<text text-anchor="middle" x="115" y="-7.8" font-family="Helvetica,sans-Serif" font-size="14.00">https://github.com/tyoung3/sw</text>
</a>
</g>
<g id="clust1" class="cluster">
<title>clusterfig2.sw</title>
<g id="a_clust1"><a xlink:href="fig2.sw" xlink:title="fig2.sw">
<polygon fill="#a6a6a6" stroke="black" points="67,-31 67,-184 163,-184 163,-31 67,-31"/>
<text text-anchor="middle" x="115" y="-168.8" font-family="Helvetica,sans-Serif" font-size="14.00">fig2.sw</text>
</a>
</g>
</g>
<!-- 2 -->
<g id="node1" class="node">
<title>2</title>
<g id="a_node1"><a xlink:href="https://sw.twyoung.com/docs/html//Gens.html" xlink:title="sw.Gens ">
<path fill="lightblue" stroke="black" d="M84.33,-124.5C84.33,-124.5 145.67,-124.5 145.67,-124.5 150.33,-124.5 155,-129.17 155,-133.83 155,-133.83 155,-143.17 155,-143.17 155,-147.83 150.33,-152.5 145.67,-152.5 145.67,-152.5 84.33,-152.5 84.33,-152.5 79.67,-152.5 75,-147.83 75,-143.17 75,-143.17 75,-133.83 75,-133.83 75,-129.17 79.67,-124.5 84.33,-124.5"/>
<text text-anchor="middle" x="115" y="-134.1" font-family="Helvetica,sans-Serif" font-size="18.00">2 Gens</text>
</a>
</g>
</g>
<!-- 1 -->
<g id="node2" class="node">
<title>1</title>
<g id="a_node2"><a xlink:href="https://sw.twyoung.com/docs/html//Print.html" xlink:title="sw.Print ">
<path fill="lightblue" stroke="black" d="M83.83,-39.5C83.83,-39.5 140.17,-39.5 140.17,-39.5 144.83,-39.5 149.5,-44.17 149.5,-48.83 149.5,-48.83 149.5,-58.17 149.5,-58.17 149.5,-62.83 144.83,-67.5 140.17,-67.5 140.17,-67.5 83.83,-67.5 83.83,-67.5 79.17,-67.5 74.5,-62.83 74.5,-58.17 74.5,-58.17 74.5,-48.83 74.5,-48.83 74.5,-44.17 79.17,-39.5 83.83,-39.5"/>
<text text-anchor="middle" x="112" y="-49.1" font-family="Helvetica,sans-Serif" font-size="18.00">1 Print</text>
</a>
</g>
</g>
<!-- 2&#45;&gt;1 -->
<g id="edge1" class="edge">
<title>2&#45;&gt;1</title>
<g id="a_edge1"><a xlink:title="3">
<path fill="none" stroke="orange" d="M114.52,-124.16C114.06,-111.63 113.38,-92.6 112.83,-77.59"/>
<polygon fill="orange" stroke="orange" points="116.33,-77.4 112.47,-67.53 109.33,-77.65 116.33,-77.4"/>
</a>
</g>
<text text-anchor="middle" x="134.5" y="-91.6" font-family="Times,serif" font-size="18.00" fill="lightblue">0 int</text>
<text text-anchor="middle" x="106.47" y="-73.13" font-family="Times,serif" font-size="18.00">0</text>
<text text-anchor="middle" x="108.52" y="-109.76" font-family="Times,serif" font-size="18.00">0</text>
</g>
</g>
</svg>
