<?xml version="1.0" encoding="UTF-8" standalone="no"?>
<!DOCTYPE svg PUBLIC "-//W3C//DTD SVG 1.1//EN"
 "http://www.w3.org/Graphics/SVG/1.1/DTD/svg11.dtd">
<!-- Generated by graphviz version 2.43.0 (0)
 -->
<!-- Title: loadbal.sw Pages: 1 -->
<svg width="725pt" height="285pt"
 viewBox="0.00 0.00 725.00 285.00" xmlns="http://www.w3.org/2000/svg" xmlns:xlink="http://www.w3.org/1999/xlink">
<g id="graph0" class="graph" transform="scale(1 1) rotate(0) translate(4 281)">
<title>loadbal.sw</title>
<g id="a_graph0"><a xlink:href="https://github.com/tyoung3/sw" xlink:title="https://github.com/tyoung3/sw">
<polygon fill="#a6a6a6" stroke="transparent" points="-4,4 -4,-281 721,-281 721,4 -4,4"/>
<text text-anchor="middle" x="358.5" y="-7.8" font-family="Helvetica,sans-Serif" font-size="14.00">https://github.com/tyoung3/sw</text>
</a>
</g>
<g id="clust1" class="cluster">
<title>clusterloadbal.sw</title>
<g id="a_clust1"><a xlink:href="/usr/local/src/sw/src/model/tests/gofbp/loadbal.sw" xlink:title="loadbal.sw">
<polygon fill="#a6a6a6" stroke="black" points="8,-31 8,-269 709,-269 709,-31 8,-31"/>
<text text-anchor="middle" x="358.5" y="-253.8" font-family="Helvetica,sans-Serif" font-size="14.00">loadbal.sw</text>
</a>
</g>
</g>
<!-- Receiver2 -->
<g id="node1" class="node">
<title>Receiver2</title>
<g id="a_node1"><a xlink:href="/usr/src/sw/src/model/tests/gofbp/html//Receiver.html" xlink:title="github.com/jpaulm/gofbp/components/testrtn.Receiver ">
<path fill="lightblue" stroke="black" d="M25.83,-39.5C25.83,-39.5 198.17,-39.5 198.17,-39.5 202.83,-39.5 207.5,-44.17 207.5,-48.83 207.5,-48.83 207.5,-58.17 207.5,-58.17 207.5,-62.83 202.83,-67.5 198.17,-67.5 198.17,-67.5 25.83,-67.5 25.83,-67.5 21.17,-67.5 16.5,-62.83 16.5,-58.17 16.5,-58.17 16.5,-48.83 16.5,-48.83 16.5,-44.17 21.17,-39.5 25.83,-39.5"/>
<text text-anchor="middle" x="112" y="-49.1" font-family="Helvetica,sans-Serif" font-size="18.00">Receiver2 Receiver</text>
</a>
</g>
</g>
<!-- Receiver1 -->
<g id="node2" class="node">
<title>Receiver1</title>
<g id="a_node2"><a xlink:href="/usr/src/sw/src/model/tests/gofbp/html//Receiver.html" xlink:title="github.com/jpaulm/gofbp/components/testrtn.Receiver ">
<path fill="lightblue" stroke="black" d="M234.83,-39.5C234.83,-39.5 407.17,-39.5 407.17,-39.5 411.83,-39.5 416.5,-44.17 416.5,-48.83 416.5,-48.83 416.5,-58.17 416.5,-58.17 416.5,-62.83 411.83,-67.5 407.17,-67.5 407.17,-67.5 234.83,-67.5 234.83,-67.5 230.17,-67.5 225.5,-62.83 225.5,-58.17 225.5,-58.17 225.5,-48.83 225.5,-48.83 225.5,-44.17 230.17,-39.5 234.83,-39.5"/>
<text text-anchor="middle" x="321" y="-49.1" font-family="Helvetica,sans-Serif" font-size="18.00">Receiver1 Receiver</text>
</a>
</g>
</g>
<!-- Receiver0 -->
<g id="node3" class="node">
<title>Receiver0</title>
<g id="a_node3"><a xlink:href="/usr/src/sw/src/model/tests/gofbp/html//DelayedReceiver.html" xlink:title="github.com/jpaulm/gofbp/components/testrtn.DelayedReceiver ">
<path fill="lightblue" stroke="black" d="M444.33,-39.5C444.33,-39.5 691.67,-39.5 691.67,-39.5 696.33,-39.5 701,-44.17 701,-48.83 701,-48.83 701,-58.17 701,-58.17 701,-62.83 696.33,-67.5 691.67,-67.5 691.67,-67.5 444.33,-67.5 444.33,-67.5 439.67,-67.5 435,-62.83 435,-58.17 435,-58.17 435,-48.83 435,-48.83 435,-44.17 439.67,-39.5 444.33,-39.5"/>
<text text-anchor="middle" x="568" y="-49.1" font-family="Helvetica,sans-Serif" font-size="18.00">Receiver0 DelayedReceiver</text>
</a>
</g>
</g>
<!-- LoadBalance -->
<g id="node4" class="node">
<title>LoadBalance</title>
<g id="a_node4"><a xlink:href="/usr/src/sw/src/model/tests/gofbp/html//LoadBalance.html" xlink:title="github.com/jpaulm/gofbp/components/testrtn.LoadBalance ">
<path fill="lightblue" stroke="black" d="M203.33,-124.5C203.33,-124.5 438.67,-124.5 438.67,-124.5 443.33,-124.5 448,-129.17 448,-133.83 448,-133.83 448,-143.17 448,-143.17 448,-147.83 443.33,-152.5 438.67,-152.5 438.67,-152.5 203.33,-152.5 203.33,-152.5 198.67,-152.5 194,-147.83 194,-143.17 194,-143.17 194,-133.83 194,-133.83 194,-129.17 198.67,-124.5 203.33,-124.5"/>
<text text-anchor="middle" x="321" y="-134.1" font-family="Helvetica,sans-Serif" font-size="18.00">LoadBalance LoadBalance</text>
</a>
</g>
</g>
<!-- LoadBalance&#45;&gt;Receiver2 -->
<g id="edge1" class="edge">
<title>LoadBalance&#45;&gt;Receiver2</title>
<g id="a_edge1"><a xlink:title="0">
<path fill="none" stroke="black" stroke-width="2" d="M287.88,-124.35C251.81,-110.02 193.99,-87.06 154.56,-71.4"/>
<polygon fill="black" stroke="black" stroke-width="2" points="155.55,-68.03 144.96,-67.59 152.96,-74.53 155.55,-68.03"/>
</a>
</g>
<text text-anchor="middle" x="269" y="-91.6" font-family="Times,serif" font-size="18.00" fill="lightblue">3 load</text>
<text text-anchor="middle" x="125.46" y="-73.19" font-family="Times,serif" font-size="18.00">IN.0</text>
<text text-anchor="middle" x="302.13" y="-109.95" font-family="Times,serif" font-size="18.00">OUT.3</text>
</g>
<!-- LoadBalance&#45;&gt;Receiver1 -->
<g id="edge2" class="edge">
<title>LoadBalance&#45;&gt;Receiver1</title>
<g id="a_edge2"><a xlink:title="0">
<path fill="none" stroke="black" stroke-width="2" d="M321,-124.16C321,-111.63 321,-92.6 321,-77.59"/>
<polygon fill="black" stroke="black" stroke-width="2" points="324.5,-77.53 321,-67.53 317.5,-77.53 324.5,-77.53"/>
</a>
</g>
<text text-anchor="middle" x="349" y="-91.6" font-family="Times,serif" font-size="18.00" fill="lightblue">2 load</text>
<text text-anchor="middle" x="301.5" y="-73.13" font-family="Times,serif" font-size="18.00">IN.0</text>
<text text-anchor="middle" x="349.5" y="-109.76" font-family="Times,serif" font-size="18.00">OUT.2</text>
</g>
<!-- LoadBalance&#45;&gt;Receiver0 -->
<g id="edge3" class="edge">
<title>LoadBalance&#45;&gt;Receiver0</title>
<g id="a_edge3"><a xlink:title="0">
<path fill="none" stroke="black" stroke-width="2" d="M359.87,-124.44C402.99,-109.95 472.64,-86.54 519.35,-70.85"/>
<polygon fill="black" stroke="black" stroke-width="2" points="520.59,-74.12 528.95,-67.62 518.36,-67.49 520.59,-74.12"/>
</a>
</g>
<text text-anchor="middle" x="501" y="-91.6" font-family="Times,serif" font-size="18.00" fill="lightblue">1 load</text>
<text text-anchor="middle" x="509.45" y="-73.22" font-family="Times,serif" font-size="18.00">IN.0</text>
<text text-anchor="middle" x="388.37" y="-110.04" font-family="Times,serif" font-size="18.00">OUT.1</text>
</g>
<!-- Sender -->
<g id="node5" class="node">
<title>Sender</title>
<g id="a_node5"><a xlink:href="/usr/src/sw/src/model/tests/gofbp/html//Sender.html" xlink:title="github.com/jpaulm/gofbp/components/testrtn.Sender &#160;&quot;10 COUNT=10&quot;">
<path fill="lightblue" stroke="black" d="M178.33,-209.5C178.33,-209.5 463.67,-209.5 463.67,-209.5 468.33,-209.5 473,-214.17 473,-218.83 473,-218.83 473,-228.17 473,-228.17 473,-232.83 468.33,-237.5 463.67,-237.5 463.67,-237.5 178.33,-237.5 178.33,-237.5 173.67,-237.5 169,-232.83 169,-228.17 169,-228.17 169,-218.83 169,-218.83 169,-214.17 173.67,-209.5 178.33,-209.5"/>
<text text-anchor="middle" x="321" y="-219.1" font-family="Helvetica,sans-Serif" font-size="18.00">Sender Sender &quot;10 COUNT=10&quot;</text>
</a>
</g>
</g>
<!-- Sender&#45;&gt;LoadBalance -->
<g id="edge4" class="edge">
<title>Sender&#45;&gt;LoadBalance</title>
<g id="a_edge4"><a xlink:title="0">
<path fill="none" stroke="black" stroke-width="2" d="M321,-209.16C321,-196.63 321,-177.6 321,-162.59"/>
<polygon fill="black" stroke="black" stroke-width="2" points="324.5,-162.53 321,-152.53 317.5,-162.53 324.5,-162.53"/>
</a>
</g>
<text text-anchor="middle" x="349" y="-176.6" font-family="Times,serif" font-size="18.00" fill="lightblue">0 load</text>
<text text-anchor="middle" x="301.5" y="-158.13" font-family="Times,serif" font-size="18.00">IN.0</text>
<text text-anchor="middle" x="292.5" y="-194.76" font-family="Times,serif" font-size="18.00">OUT.0</text>
</g>
</g>
</svg>
