<?xml version="1.0" encoding="UTF-8" standalone="no"?>
<!DOCTYPE svg PUBLIC "-//W3C//DTD SVG 1.1//EN"
 "http://www.w3.org/Graphics/SVG/1.1/DTD/svg11.dtd">
<!-- Generated by graphviz version 2.43.0 (0)
 -->
<!-- Title: mvc.sw Pages: 1 -->
<svg width="356pt" height="285pt"
 viewBox="0.00 0.00 356.00 285.00" xmlns="http://www.w3.org/2000/svg" xmlns:xlink="http://www.w3.org/1999/xlink">
<g id="graph0" class="graph" transform="scale(1 1) rotate(0) translate(4 281)">
<title>mvc.sw</title>
<g id="a_graph0"><a xlink:href="https://github.com/tyoung3/sw/blob/master/nds/mvc.sw" xlink:title="https://github.com/tyoung3/sw">
<polygon fill="#a6a6a6" stroke="transparent" points="-4,4 -4,-281 352,-281 352,4 -4,4"/>
<text text-anchor="middle" x="174" y="-7.8" font-family="Helvetica,sans-Serif" font-size="14.00">https://github.com/tyoung3/sw</text>
</a>
</g>
<g id="clust1" class="cluster">
<title>clustermvc.sw</title>
<g id="a_clust1"><a xlink:href="mvc.sw.html" xlink:title="mvc.sw">
<polygon fill="#a6a6a6" stroke="black" points="8,-31 8,-269 340,-269 340,-31 8,-31"/>
<text text-anchor="middle" x="174" y="-253.8" font-family="Helvetica,sans-Serif" font-size="14.00">mvc.sw</text>
</a>
</g>
</g>
<!-- c -->
<g id="node1" class="node">
<title>c</title>
<g id="a_node1"><a xlink:href="/usr/src/sw/htmlControl.html" xlink:title="ctl.Control ">
<path fill="lightblue" stroke="black" d="M132.33,-209.5C132.33,-209.5 211.67,-209.5 211.67,-209.5 216.33,-209.5 221,-214.17 221,-218.83 221,-218.83 221,-228.17 221,-228.17 221,-232.83 216.33,-237.5 211.67,-237.5 211.67,-237.5 132.33,-237.5 132.33,-237.5 127.67,-237.5 123,-232.83 123,-228.17 123,-228.17 123,-218.83 123,-218.83 123,-214.17 127.67,-209.5 132.33,-209.5"/>
<text text-anchor="middle" x="172" y="-219.1" font-family="Helvetica,sans-Serif" font-size="18.00">c Control</text>
</a>
</g>
</g>
<!-- v -->
<g id="node2" class="node">
<title>v</title>
<g id="a_node2"><a xlink:href="/usr/src/sw/htmlView.html" xlink:title="vw.View ">
<path fill="gold" stroke="black" d="M147.33,-39.5C147.33,-39.5 204.67,-39.5 204.67,-39.5 209.33,-39.5 214,-44.17 214,-48.83 214,-48.83 214,-58.17 214,-58.17 214,-62.83 209.33,-67.5 204.67,-67.5 204.67,-67.5 147.33,-67.5 147.33,-67.5 142.67,-67.5 138,-62.83 138,-58.17 138,-58.17 138,-48.83 138,-48.83 138,-44.17 142.67,-39.5 147.33,-39.5"/>
<text text-anchor="middle" x="176" y="-49.1" font-family="Helvetica,sans-Serif" font-size="18.00">v View</text>
</a>
</g>
</g>
<!-- c&#45;&gt;v -->
<g id="edge3" class="edge">
<title>c&#45;&gt;v</title>
<g id="a_edge3"><a xlink:title="0">
<path fill="none" stroke="black" stroke-width="2" d="M127.16,-209.46C81.28,-193.61 19.87,-163.97 44,-124 62.16,-93.92 98.14,-76.2 127.96,-66.19"/>
<polygon fill="black" stroke="black" stroke-width="2" points="129.31,-69.43 137.8,-63.09 127.21,-62.76 129.31,-69.43"/>
</a>
</g>
<text text-anchor="middle" x="84" y="-134.1" font-family="Times,serif" font-size="18.00" fill="lightblue">1 update</text>
<text text-anchor="middle" x="131.8" y="-68.69" font-family="Times,serif" font-size="18.00">1</text>
<text text-anchor="middle" x="121.16" y="-195.06" font-family="Times,serif" font-size="18.00">2</text>
</g>
<!-- m -->
<g id="node3" class="node">
<title>m</title>
<g id="a_node3"><a xlink:href="/usr/src/sw/htmlModel.html" xlink:title="mdl.Model ">
<path fill="red" stroke="black" d="M141.83,-124.5C141.83,-124.5 218.17,-124.5 218.17,-124.5 222.83,-124.5 227.5,-129.17 227.5,-133.83 227.5,-133.83 227.5,-143.17 227.5,-143.17 227.5,-147.83 222.83,-152.5 218.17,-152.5 218.17,-152.5 141.83,-152.5 141.83,-152.5 137.17,-152.5 132.5,-147.83 132.5,-143.17 132.5,-143.17 132.5,-133.83 132.5,-133.83 132.5,-129.17 137.17,-124.5 141.83,-124.5"/>
<text text-anchor="middle" x="180" y="-134.1" font-family="Helvetica,sans-Serif" font-size="18.00">m Model</text>
</a>
</g>
</g>
<!-- c&#45;&gt;m -->
<g id="edge1" class="edge">
<title>c&#45;&gt;m</title>
<g id="a_edge1"><a xlink:title="2">
<path fill="none" stroke="orange" stroke-width="2" d="M171.54,-209.33C171.34,-198.89 171.45,-183.96 173,-171 173.33,-168.23 173.8,-165.34 174.34,-162.49"/>
<polygon fill="orange" stroke="orange" stroke-width="2" points="177.79,-163.09 176.48,-152.58 170.95,-161.61 177.79,-163.09"/>
</a>
</g>
<text text-anchor="middle" x="216" y="-176.6" font-family="Times,serif" font-size="18.00" fill="lightblue">3 request</text>
<text text-anchor="middle" x="170.48" y="-158.18" font-family="Times,serif" font-size="18.00">0</text>
<text text-anchor="middle" x="165.54" y="-194.93" font-family="Times,serif" font-size="18.00">1</text>
</g>
<!-- v&#45;&gt;c -->
<g id="edge2" class="edge">
<title>v&#45;&gt;c</title>
<g id="a_edge2"><a xlink:title="1">
<path fill="none" stroke="green" stroke-width="2" d="M214.21,-59.26C230.85,-63.44 248.85,-71.29 259,-86 285.51,-124.41 285.8,-152.8 259,-191 252.08,-200.86 241.75,-207.65 230.6,-212.32"/>
<polygon fill="green" stroke="green" stroke-width="2" points="229.3,-209.06 221.09,-215.76 231.69,-215.65 229.3,-209.06"/>
</a>
</g>
<text text-anchor="middle" x="312" y="-134.1" font-family="Times,serif" font-size="18.00" fill="gold">2 event</text>
<text text-anchor="middle" x="227.09" y="-221.36" font-family="Times,serif" font-size="18.00">0</text>
<text text-anchor="middle" x="220.21" y="-64.86" font-family="Times,serif" font-size="18.00">2</text>
</g>
<!-- m&#45;&gt;v -->
<g id="edge4" class="edge">
<title>m&#45;&gt;v</title>
<g id="a_edge4"><a xlink:title="0">
<path fill="none" stroke="black" stroke-width="2" d="M178.52,-124.34C177.95,-118.7 177.35,-112.03 177,-106 176.47,-96.73 176.2,-86.51 176.08,-77.64"/>
<polygon fill="black" stroke="black" stroke-width="2" points="179.58,-77.6 175.98,-67.63 172.58,-77.67 179.58,-77.6"/>
</a>
</g>
<text text-anchor="middle" x="218" y="-91.6" font-family="Times,serif" font-size="18.00" fill="red">0 change</text>
<text text-anchor="middle" x="169.98" y="-73.23" font-family="Times,serif" font-size="18.00">0</text>
<text text-anchor="middle" x="172.52" y="-109.94" font-family="Times,serif" font-size="18.00">1</text>
</g>
</g>
</svg>
