<?xml version="1.0" encoding="UTF-8" standalone="no"?>
<!DOCTYPE svg PUBLIC "-//W3C//DTD SVG 1.1//EN"
 "http://www.w3.org/Graphics/SVG/1.1/DTD/svg11.dtd">
<!-- Generated by graphviz version 2.43.0 (0)
 -->
<!-- Title: postage.sw Pages: 1 -->
<svg width="472pt" height="285pt"
 viewBox="0.00 0.00 472.00 285.00" xmlns="http://www.w3.org/2000/svg" xmlns:xlink="http://www.w3.org/1999/xlink">
<g id="graph0" class="graph" transform="scale(1 1) rotate(0) translate(4 281)">
<title>postage.sw</title>
<g id="a_graph0"><a xlink:href="https://github.com/tyoung3/sw" xlink:title="https://github.com/tyoung3/sw">
<polygon fill="#a6a6a6" stroke="transparent" points="-4,4 -4,-281 468,-281 468,4 -4,4"/>
<text text-anchor="middle" x="232" y="-7.8" font-family="Helvetica,sans-Serif" font-size="14.00">https://github.com/tyoung3/sw</text>
</a>
</g>
<g id="clust1" class="cluster">
<title>clusterpostage.sw</title>
<g id="a_clust1"><a xlink:href="postage.sw" xlink:title="postage.sw">
<polygon fill="#a6a6a6" stroke="black" points="8,-31 8,-269 456,-269 456,-31 8,-31"/>
<text text-anchor="middle" x="232" y="-253.8" font-family="Helvetica,sans-Serif" font-size="14.00">postage.sw</text>
</a>
</g>
</g>
<!-- print -->
<g id="node1" class="node">
<title>print</title>
<g id="a_node1"><a xlink:href="/usr/local/src/html//PrintLabel.html" xlink:title="postage.PrintLabel ">
<path fill="lightblue" stroke="black" d="M161.83,-39.5C161.83,-39.5 298.17,-39.5 298.17,-39.5 302.83,-39.5 307.5,-44.17 307.5,-48.83 307.5,-48.83 307.5,-58.17 307.5,-58.17 307.5,-62.83 302.83,-67.5 298.17,-67.5 298.17,-67.5 161.83,-67.5 161.83,-67.5 157.17,-67.5 152.5,-62.83 152.5,-58.17 152.5,-58.17 152.5,-48.83 152.5,-48.83 152.5,-44.17 157.17,-39.5 161.83,-39.5"/>
<text text-anchor="middle" x="230" y="-49.1" font-family="Helvetica,sans-Serif" font-size="18.00">print PrintLabel</text>
</a>
</g>
</g>
<!-- getdest -->
<g id="node2" class="node">
<title>getdest</title>
<g id="a_node2"><a xlink:href="/usr/local/src/html//GetDest.html" xlink:title="postage/addr.GetDest &#160;&quot;LA&quot;">
<path fill="gold" stroke="black" d="M247.83,-209.5C247.83,-209.5 438.17,-209.5 438.17,-209.5 442.83,-209.5 447.5,-214.17 447.5,-218.83 447.5,-218.83 447.5,-228.17 447.5,-228.17 447.5,-232.83 442.83,-237.5 438.17,-237.5 438.17,-237.5 247.83,-237.5 247.83,-237.5 243.17,-237.5 238.5,-232.83 238.5,-228.17 238.5,-228.17 238.5,-218.83 238.5,-218.83 238.5,-214.17 243.17,-209.5 247.83,-209.5"/>
<text text-anchor="middle" x="343" y="-219.1" font-family="Helvetica,sans-Serif" font-size="18.00">getdest GetDest &quot;LA&quot;</text>
</a>
</g>
</g>
<!-- cp -->
<g id="node4" class="node">
<title>cp</title>
<g id="a_node4"><a xlink:href="/usr/local/src/html//ComputePostage.html" xlink:title="postage.ComputePostage ">
<path fill="lightblue" stroke="black" d="M140.83,-124.5C140.83,-124.5 319.17,-124.5 319.17,-124.5 323.83,-124.5 328.5,-129.17 328.5,-133.83 328.5,-133.83 328.5,-143.17 328.5,-143.17 328.5,-147.83 323.83,-152.5 319.17,-152.5 319.17,-152.5 140.83,-152.5 140.83,-152.5 136.17,-152.5 131.5,-147.83 131.5,-143.17 131.5,-143.17 131.5,-133.83 131.5,-133.83 131.5,-129.17 136.17,-124.5 140.83,-124.5"/>
<text text-anchor="middle" x="230" y="-134.1" font-family="Helvetica,sans-Serif" font-size="18.00">cp ComputePostage</text>
</a>
</g>
</g>
<!-- getdest&#45;&gt;cp -->
<g id="edge2" class="edge">
<title>getdest&#45;&gt;cp</title>
<g id="a_edge2"><a xlink:title="0">
<path fill="none" stroke="black" d="M325.09,-209.35C306.5,-195.69 277.22,-174.18 256.06,-158.64"/>
<polygon fill="black" stroke="black" points="257.95,-155.69 247.82,-152.59 253.81,-161.33 257.95,-155.69"/>
</a>
</g>
<text text-anchor="middle" x="343" y="-176.6" font-family="Times,serif" font-size="18.00" fill="gold">1 address</text>
<text text-anchor="middle" x="253.82" y="-158.19" font-family="Times,serif" font-size="18.00">1</text>
<text text-anchor="middle" x="319.09" y="-194.95" font-family="Times,serif" font-size="18.00">0</text>
</g>
<!-- getr -->
<g id="node3" class="node">
<title>getr</title>
<g id="a_node3"><a xlink:href="/usr/local/src/html//Rates.html" xlink:title="postage/getr.Rates &#160;&quot;.17&quot; &quot;oz&quot;">
<path fill="red" stroke="black" d="M24.83,-209.5C24.83,-209.5 211.17,-209.5 211.17,-209.5 215.83,-209.5 220.5,-214.17 220.5,-218.83 220.5,-218.83 220.5,-228.17 220.5,-228.17 220.5,-232.83 215.83,-237.5 211.17,-237.5 211.17,-237.5 24.83,-237.5 24.83,-237.5 20.17,-237.5 15.5,-232.83 15.5,-228.17 15.5,-228.17 15.5,-218.83 15.5,-218.83 15.5,-214.17 20.17,-209.5 24.83,-209.5"/>
<text text-anchor="middle" x="118" y="-219.1" font-family="Helvetica,sans-Serif" font-size="18.00">getr Rates &quot;.17&quot; &quot;oz&quot;</text>
</a>
</g>
</g>
<!-- getr&#45;&gt;cp -->
<g id="edge3" class="edge">
<title>getr&#45;&gt;cp</title>
<g id="a_edge3"><a xlink:title="1">
<path fill="none" stroke="green" d="M135.99,-209.16C154.47,-195.47 183.4,-174.03 204.29,-158.55"/>
<polygon fill="green" stroke="green" points="206.47,-161.29 212.42,-152.53 202.3,-155.67 206.47,-161.29"/>
</a>
</g>
<text text-anchor="middle" x="214.5" y="-176.6" font-family="Times,serif" font-size="18.00" fill="red">0 rate</text>
<text text-anchor="middle" x="206.42" y="-158.13" font-family="Times,serif" font-size="18.00">0</text>
<text text-anchor="middle" x="129.99" y="-194.76" font-family="Times,serif" font-size="18.00">0</text>
</g>
<!-- cp&#45;&gt;print -->
<g id="edge1" class="edge">
<title>cp&#45;&gt;print</title>
<g id="a_edge1"><a xlink:title="0">
<path fill="none" stroke="black" d="M230,-124.16C230,-111.63 230,-92.6 230,-77.59"/>
<polygon fill="black" stroke="black" points="233.5,-77.53 230,-67.53 226.5,-77.53 233.5,-77.53"/>
</a>
</g>
<text text-anchor="middle" x="274" y="-91.6" font-family="Times,serif" font-size="18.00" fill="lightblue">2 postage</text>
<text text-anchor="middle" x="224" y="-73.13" font-family="Times,serif" font-size="18.00">0</text>
<text text-anchor="middle" x="224" y="-109.76" font-family="Times,serif" font-size="18.00">2</text>
</g>
</g>
</svg>
