<?xml version="1.0" encoding="UTF-8" standalone="no"?>
<!DOCTYPE svg PUBLIC "-//W3C//DTD SVG 1.1//EN"
 "http://www.w3.org/Graphics/SVG/1.1/DTD/svg11.dtd">
<!-- Generated by graphviz version 2.43.0 (0)
 -->
<!-- Title: StreamWork.sw Pages: 1 -->
<svg width="403pt" height="370pt"
 viewBox="0.00 0.00 403.00 370.00" xmlns="http://www.w3.org/2000/svg" xmlns:xlink="http://www.w3.org/1999/xlink">
<g id="graph0" class="graph" transform="scale(1 1) rotate(0) translate(4 366)">
<title>StreamWork.sw</title>
<g id="a_graph0"><a xlink:href="https://github.com/tyoung3/sw" xlink:title="https://github.com/tyoung3/sw">
<polygon fill="#a6a6a6" stroke="transparent" points="-4,4 -4,-366 399,-366 399,4 -4,4"/>
<text text-anchor="middle" x="197.5" y="-7.8" font-family="Helvetica,sans-Serif" font-size="14.00">https://github.com/tyoung3/sw</text>
</a>
</g>
<g id="clust1" class="cluster">
<title>clusterStreamWork.sw</title>
<g id="a_clust1"><a xlink:href="./src/nds/StreamWork.sw" xlink:title="StreamWork.sw">
<polygon fill="#a6a6a6" stroke="black" points="8,-31 8,-354 387,-354 387,-31 8,-31"/>
<text text-anchor="middle" x="197.5" y="-338.8" font-family="Helvetica,sans-Serif" font-size="14.00">StreamWork.sw</text>
</a>
</g>
</g>
<!-- GO -->
<g id="node1" class="node">
<title>GO</title>
<g id="a_node1"><a xlink:href="/usr/local/src/sw/html/run.html" xlink:title="g.run ">
<path fill="lightblue" stroke="black" d="M25.83,-124.5C25.83,-124.5 88.17,-124.5 88.17,-124.5 92.83,-124.5 97.5,-129.17 97.5,-133.83 97.5,-133.83 97.5,-143.17 97.5,-143.17 97.5,-147.83 92.83,-152.5 88.17,-152.5 88.17,-152.5 25.83,-152.5 25.83,-152.5 21.17,-152.5 16.5,-147.83 16.5,-143.17 16.5,-143.17 16.5,-133.83 16.5,-133.83 16.5,-129.17 21.17,-124.5 25.83,-124.5"/>
<text text-anchor="middle" x="57" y="-134.1" font-family="Helvetica,sans-Serif" font-size="18.00">GO run</text>
</a>
</g>
</g>
<!-- DOT -->
<g id="node2" class="node">
<title>DOT</title>
<g id="a_node2"><a xlink:href="/usr/local/src/sw/html/dot2svg.html" xlink:title="d.dot2svg ">
<path fill="gold" stroke="black" d="M125.33,-124.5C125.33,-124.5 240.67,-124.5 240.67,-124.5 245.33,-124.5 250,-129.17 250,-133.83 250,-133.83 250,-143.17 250,-143.17 250,-147.83 245.33,-152.5 240.67,-152.5 240.67,-152.5 125.33,-152.5 125.33,-152.5 120.67,-152.5 116,-147.83 116,-143.17 116,-143.17 116,-133.83 116,-133.83 116,-129.17 120.67,-124.5 125.33,-124.5"/>
<text text-anchor="middle" x="183" y="-134.1" font-family="Helvetica,sans-Serif" font-size="18.00">DOT dot2svg</text>
</a>
</g>
</g>
<!-- View -->
<g id="node3" class="node">
<title>View</title>
<g id="a_node3"><a xlink:href="/usr/local/src/sw/html/image.html" xlink:title="d.image ">
<path fill="gold" stroke="black" d="M131.33,-39.5C131.33,-39.5 234.67,-39.5 234.67,-39.5 239.33,-39.5 244,-44.17 244,-48.83 244,-48.83 244,-58.17 244,-58.17 244,-62.83 239.33,-67.5 234.67,-67.5 234.67,-67.5 131.33,-67.5 131.33,-67.5 126.67,-67.5 122,-62.83 122,-58.17 122,-58.17 122,-48.83 122,-48.83 122,-44.17 126.67,-39.5 131.33,-39.5"/>
<text text-anchor="middle" x="183" y="-49.1" font-family="Helvetica,sans-Serif" font-size="18.00">View image</text>
</a>
</g>
</g>
<!-- DOT&#45;&gt;View -->
<g id="edge2" class="edge">
<title>DOT&#45;&gt;View</title>
<g id="a_edge2"><a xlink:title="0">
<path fill="none" stroke="black" d="M183,-124.16C183,-111.63 183,-92.6 183,-77.59"/>
<polygon fill="black" stroke="black" points="186.5,-77.53 183,-67.53 179.5,-77.53 186.5,-77.53"/>
</a>
</g>
<text text-anchor="middle" x="207.5" y="-91.6" font-family="Times,serif" font-size="18.00" fill="gold">3 svg</text>
<text text-anchor="middle" x="177" y="-73.13" font-family="Times,serif" font-size="18.00">0</text>
<text text-anchor="middle" x="177" y="-109.76" font-family="Times,serif" font-size="18.00">1</text>
</g>
<!-- sw -->
<g id="node4" class="node">
<title>sw</title>
<g id="a_node4"><a xlink:href="/usr/local/src/sw/html/editor.html" xlink:title="sw.editor ">
<path fill="red" stroke="black" d="M141.83,-294.5C141.83,-294.5 224.17,-294.5 224.17,-294.5 228.83,-294.5 233.5,-299.17 233.5,-303.83 233.5,-303.83 233.5,-313.17 233.5,-313.17 233.5,-317.83 228.83,-322.5 224.17,-322.5 224.17,-322.5 141.83,-322.5 141.83,-322.5 137.17,-322.5 132.5,-317.83 132.5,-313.17 132.5,-313.17 132.5,-303.83 132.5,-303.83 132.5,-299.17 137.17,-294.5 141.83,-294.5"/>
<text text-anchor="middle" x="183" y="-304.1" font-family="Helvetica,sans-Serif" font-size="18.00">sw editor</text>
</a>
</g>
</g>
<!-- SW -->
<g id="node5" class="node">
<title>SW</title>
<g id="a_node5"><a xlink:href="/usr/local/src/sw/html/sw.html" xlink:title="sw.sw ">
<path fill="red" stroke="black" d="M153.83,-209.5C153.83,-209.5 212.17,-209.5 212.17,-209.5 216.83,-209.5 221.5,-214.17 221.5,-218.83 221.5,-218.83 221.5,-228.17 221.5,-228.17 221.5,-232.83 216.83,-237.5 212.17,-237.5 212.17,-237.5 153.83,-237.5 153.83,-237.5 149.17,-237.5 144.5,-232.83 144.5,-228.17 144.5,-228.17 144.5,-218.83 144.5,-218.83 144.5,-214.17 149.17,-209.5 153.83,-209.5"/>
<text text-anchor="middle" x="183" y="-219.1" font-family="Helvetica,sans-Serif" font-size="18.00">SW sw</text>
</a>
</g>
</g>
<!-- sw&#45;&gt;SW -->
<g id="edge5" class="edge">
<title>sw&#45;&gt;SW</title>
<g id="a_edge5"><a xlink:title="0">
<path fill="none" stroke="black" d="M183,-294.16C183,-281.63 183,-262.6 183,-247.59"/>
<polygon fill="black" stroke="black" points="186.5,-247.53 183,-237.53 179.5,-247.53 186.5,-247.53"/>
</a>
</g>
<text text-anchor="middle" x="276.5" y="-261.6" font-family="Times,serif" font-size="18.00" fill="red">0 NetworkDefinition</text>
<text text-anchor="middle" x="177" y="-243.13" font-family="Times,serif" font-size="18.00">0</text>
<text text-anchor="middle" x="177" y="-279.76" font-family="Times,serif" font-size="18.00">0</text>
</g>
<!-- SW&#45;&gt;GO -->
<g id="edge1" class="edge">
<title>SW&#45;&gt;GO</title>
<g id="a_edge1"><a xlink:title="0">
<path fill="none" stroke="black" d="M144.36,-217.08C124.83,-212.72 101.79,-204.91 85,-191 75.95,-183.5 69.37,-172.29 64.87,-162.23"/>
<polygon fill="black" stroke="black" points="68.03,-160.72 61.05,-152.75 61.54,-163.33 68.03,-160.72"/>
</a>
</g>
<text text-anchor="middle" x="132" y="-176.6" font-family="Times,serif" font-size="18.00" fill="red">0 main_go</text>
<text text-anchor="middle" x="55.05" y="-158.35" font-family="Times,serif" font-size="18.00">0</text>
<text text-anchor="middle" x="138.36" y="-222.68" font-family="Times,serif" font-size="18.00">0</text>
</g>
<!-- SW&#45;&gt;DOT -->
<g id="edge3" class="edge">
<title>SW&#45;&gt;DOT</title>
<g id="a_edge3"><a xlink:title="0">
<path fill="none" stroke="black" d="M183,-209.16C183,-196.63 183,-177.6 183,-162.59"/>
<polygon fill="black" stroke="black" points="186.5,-162.53 183,-152.53 179.5,-162.53 186.5,-162.53"/>
</a>
</g>
<text text-anchor="middle" x="206.5" y="-176.6" font-family="Times,serif" font-size="18.00" fill="red">2 dot</text>
<text text-anchor="middle" x="177" y="-158.13" font-family="Times,serif" font-size="18.00">0</text>
<text text-anchor="middle" x="177" y="-194.76" font-family="Times,serif" font-size="18.00">1</text>
</g>
<!-- GoFBP -->
<g id="node6" class="node">
<title>GoFBP</title>
<g id="a_node6"><a xlink:href="/usr/local/src/sw/html/run.html" xlink:title="g.run ">
<path fill="lightblue" stroke="black" d="M277.83,-124.5C277.83,-124.5 370.17,-124.5 370.17,-124.5 374.83,-124.5 379.5,-129.17 379.5,-133.83 379.5,-133.83 379.5,-143.17 379.5,-143.17 379.5,-147.83 374.83,-152.5 370.17,-152.5 370.17,-152.5 277.83,-152.5 277.83,-152.5 273.17,-152.5 268.5,-147.83 268.5,-143.17 268.5,-143.17 268.5,-133.83 268.5,-133.83 268.5,-129.17 273.17,-124.5 277.83,-124.5"/>
<text text-anchor="middle" x="324" y="-134.1" font-family="Helvetica,sans-Serif" font-size="18.00">GoFBP run</text>
</a>
</g>
</g>
<!-- SW&#45;&gt;GoFBP -->
<g id="edge4" class="edge">
<title>SW&#45;&gt;GoFBP</title>
<g id="a_edge4"><a xlink:title="0">
<path fill="none" stroke="black" d="M205.34,-209.35C228.96,-195.45 266.39,-173.41 292.89,-157.82"/>
<polygon fill="black" stroke="black" points="294.92,-160.68 301.76,-152.59 291.37,-154.65 294.92,-160.68"/>
</a>
</g>
<text text-anchor="middle" x="317" y="-176.6" font-family="Times,serif" font-size="18.00" fill="red">1 main_go</text>
<text text-anchor="middle" x="295.76" y="-158.19" font-family="Times,serif" font-size="18.00">0</text>
<text text-anchor="middle" x="199.34" y="-194.95" font-family="Times,serif" font-size="18.00">2</text>
</g>
</g>
</svg>
