<?xml version="1.0" encoding="UTF-8" standalone="no"?>
<!DOCTYPE svg PUBLIC "-//W3C//DTD SVG 1.1//EN"
 "http://www.w3.org/Graphics/SVG/1.1/DTD/svg11.dtd">
<!-- Generated by graphviz version 2.43.0 (0)
 -->
<!-- Title: StreamWork.sw Pages: 1 -->
<svg width="442pt" height="285pt"
 viewBox="0.00 0.00 442.00 285.00" xmlns="http://www.w3.org/2000/svg" xmlns:xlink="http://www.w3.org/1999/xlink">
<g id="graph0" class="graph" transform="scale(1 1) rotate(0) translate(4 281)">
<title>StreamWork.sw</title>
<g id="a_graph0"><a xlink:href="https://github.com/tyoung3/sw" xlink:title="https://github.com/tyoung3/sw">
<polygon fill="#a6a6a6" stroke="transparent" points="-4,4 -4,-281 438,-281 438,4 -4,4"/>
<text text-anchor="middle" x="217" y="-7.8" font-family="Helvetica,sans-Serif" font-size="14.00">https://github.com/tyoung3/sw</text>
</a>
</g>
<g id="clust1" class="cluster">
<title>clusterStreamWork.sw</title>
<g id="a_clust1"><a xlink:href="StreamWork.sw" xlink:title="StreamWork.sw">
<polygon fill="#a6a6a6" stroke="black" points="8,-31 8,-269 426,-269 426,-31 8,-31"/>
<text text-anchor="middle" x="217" y="-253.8" font-family="Helvetica,sans-Serif" font-size="14.00">StreamWork.sw</text>
</a>
</g>
</g>
<!-- GO -->
<g id="node1" class="node">
<title>GO</title>
<g id="a_node1"><a xlink:href="/usr/local/src/sw/html/source.html" xlink:title="g.source ">
<path fill="lightblue" stroke="black" d="M24.83,-124.5C24.83,-124.5 117.17,-124.5 117.17,-124.5 121.83,-124.5 126.5,-129.17 126.5,-133.83 126.5,-133.83 126.5,-143.17 126.5,-143.17 126.5,-147.83 121.83,-152.5 117.17,-152.5 117.17,-152.5 24.83,-152.5 24.83,-152.5 20.17,-152.5 15.5,-147.83 15.5,-143.17 15.5,-143.17 15.5,-133.83 15.5,-133.83 15.5,-129.17 20.17,-124.5 24.83,-124.5"/>
<text text-anchor="middle" x="71" y="-134.1" font-family="Helvetica,sans-Serif" font-size="18.00">GO source</text>
</a>
</g>
</g>
<!-- Run -->
<g id="node2" class="node">
<title>Run</title>
<g id="a_node2"><a xlink:href="/usr/local/src/sw/html/execute.html" xlink:title="g.execute ">
<path fill="lightblue" stroke="black" d="M25.33,-39.5C25.33,-39.5 134.67,-39.5 134.67,-39.5 139.33,-39.5 144,-44.17 144,-48.83 144,-48.83 144,-58.17 144,-58.17 144,-62.83 139.33,-67.5 134.67,-67.5 134.67,-67.5 25.33,-67.5 25.33,-67.5 20.67,-67.5 16,-62.83 16,-58.17 16,-58.17 16,-48.83 16,-48.83 16,-44.17 20.67,-39.5 25.33,-39.5"/>
<text text-anchor="middle" x="80" y="-49.1" font-family="Helvetica,sans-Serif" font-size="18.00">Run execute</text>
</a>
</g>
</g>
<!-- GO&#45;&gt;Run -->
<g id="edge1" class="edge">
<title>GO&#45;&gt;Run</title>
<g id="a_edge1"><a xlink:title="0">
<path fill="none" stroke="black" d="M72.45,-124.16C73.81,-111.63 75.87,-92.6 77.5,-77.59"/>
<polygon fill="black" stroke="black" points="80.99,-77.85 78.59,-67.53 74.03,-77.09 80.99,-77.85"/>
</a>
</g>
<text text-anchor="middle" x="85" y="-91.6" font-family="Times,serif" font-size="18.00" fill="lightblue">3 </text>
<text text-anchor="middle" x="72.59" y="-73.13" font-family="Times,serif" font-size="18.00">0</text>
<text text-anchor="middle" x="66.45" y="-109.76" font-family="Times,serif" font-size="18.00">0</text>
</g>
<!-- DOT -->
<g id="node3" class="node">
<title>DOT</title>
<g id="a_node3"><a xlink:href="/usr/local/src/sw/html/dot.html" xlink:title="d.dot ">
<path fill="gold" stroke="black" d="M153.83,-124.5C153.83,-124.5 226.17,-124.5 226.17,-124.5 230.83,-124.5 235.5,-129.17 235.5,-133.83 235.5,-133.83 235.5,-143.17 235.5,-143.17 235.5,-147.83 230.83,-152.5 226.17,-152.5 226.17,-152.5 153.83,-152.5 153.83,-152.5 149.17,-152.5 144.5,-147.83 144.5,-143.17 144.5,-143.17 144.5,-133.83 144.5,-133.83 144.5,-129.17 149.17,-124.5 153.83,-124.5"/>
<text text-anchor="middle" x="190" y="-134.1" font-family="Helvetica,sans-Serif" font-size="18.00">DOT dot</text>
</a>
</g>
</g>
<!-- SVG -->
<g id="node4" class="node">
<title>SVG</title>
<g id="a_node4"><a xlink:href="/usr/local/src/sw/html/image.html" xlink:title="d.image ">
<path fill="gold" stroke="black" d="M171.33,-39.5C171.33,-39.5 268.67,-39.5 268.67,-39.5 273.33,-39.5 278,-44.17 278,-48.83 278,-48.83 278,-58.17 278,-58.17 278,-62.83 273.33,-67.5 268.67,-67.5 268.67,-67.5 171.33,-67.5 171.33,-67.5 166.67,-67.5 162,-62.83 162,-58.17 162,-58.17 162,-48.83 162,-48.83 162,-44.17 166.67,-39.5 171.33,-39.5"/>
<text text-anchor="middle" x="220" y="-49.1" font-family="Helvetica,sans-Serif" font-size="18.00">SVG image</text>
</a>
</g>
</g>
<!-- DOT&#45;&gt;SVG -->
<g id="edge3" class="edge">
<title>DOT&#45;&gt;SVG</title>
<g id="a_edge3"><a xlink:title="0">
<path fill="none" stroke="black" d="M194.82,-124.16C199.4,-111.51 206.36,-92.23 211.81,-77.16"/>
<polygon fill="black" stroke="black" points="215.18,-78.12 215.29,-67.53 208.6,-75.74 215.18,-78.12"/>
</a>
</g>
<text text-anchor="middle" x="217" y="-91.6" font-family="Times,serif" font-size="18.00" fill="gold">1 </text>
<text text-anchor="middle" x="209.29" y="-73.13" font-family="Times,serif" font-size="18.00">0</text>
<text text-anchor="middle" x="188.82" y="-109.76" font-family="Times,serif" font-size="18.00">0</text>
</g>
<!-- SWL -->
<g id="node5" class="node">
<title>SWL</title>
<g id="a_node5"><a xlink:href="/usr/local/src/sw/html/sw.html" xlink:title="sw.sw ">
<path fill="red" stroke="black" d="M156.33,-209.5C156.33,-209.5 223.67,-209.5 223.67,-209.5 228.33,-209.5 233,-214.17 233,-218.83 233,-218.83 233,-228.17 233,-228.17 233,-232.83 228.33,-237.5 223.67,-237.5 223.67,-237.5 156.33,-237.5 156.33,-237.5 151.67,-237.5 147,-232.83 147,-228.17 147,-228.17 147,-218.83 147,-218.83 147,-214.17 151.67,-209.5 156.33,-209.5"/>
<text text-anchor="middle" x="190" y="-219.1" font-family="Helvetica,sans-Serif" font-size="18.00">SWL sw</text>
</a>
</g>
</g>
<!-- SWL&#45;&gt;GO -->
<g id="edge2" class="edge">
<title>SWL&#45;&gt;GO</title>
<g id="a_edge2"><a xlink:title="0">
<path fill="none" stroke="black" d="M171.14,-209.35C151.47,-195.63 120.45,-173.99 98.14,-158.43"/>
<polygon fill="black" stroke="black" points="99.97,-155.44 89.77,-152.59 95.97,-161.18 99.97,-155.44"/>
</a>
</g>
<text text-anchor="middle" x="153" y="-176.6" font-family="Times,serif" font-size="18.00" fill="red">3 </text>
<text text-anchor="middle" x="83.77" y="-158.19" font-family="Times,serif" font-size="18.00">0</text>
<text text-anchor="middle" x="177.14" y="-194.95" font-family="Times,serif" font-size="18.00">0</text>
</g>
<!-- SWL&#45;&gt;DOT -->
<g id="edge4" class="edge">
<title>SWL&#45;&gt;DOT</title>
<g id="a_edge4"><a xlink:title="0">
<path fill="none" stroke="black" d="M190,-209.16C190,-196.63 190,-177.6 190,-162.59"/>
<polygon fill="black" stroke="black" points="193.5,-162.53 190,-152.53 186.5,-162.53 193.5,-162.53"/>
</a>
</g>
<text text-anchor="middle" x="199" y="-176.6" font-family="Times,serif" font-size="18.00" fill="red">1 </text>
<text text-anchor="middle" x="184" y="-158.13" font-family="Times,serif" font-size="18.00">0</text>
<text text-anchor="middle" x="190" y="-194.76" font-family="Times,serif" font-size="18.00">1</text>
</g>
<!-- GoFBP -->
<g id="node6" class="node">
<title>GoFBP</title>
<g id="a_node6"><a xlink:href="/usr/local/src/sw/html/gosource.html" xlink:title="f.gosource ">
<path fill="orange" stroke="black" d="M263.33,-124.5C263.33,-124.5 408.67,-124.5 408.67,-124.5 413.33,-124.5 418,-129.17 418,-133.83 418,-133.83 418,-143.17 418,-143.17 418,-147.83 413.33,-152.5 408.67,-152.5 408.67,-152.5 263.33,-152.5 263.33,-152.5 258.67,-152.5 254,-147.83 254,-143.17 254,-143.17 254,-133.83 254,-133.83 254,-129.17 258.67,-124.5 263.33,-124.5"/>
<text text-anchor="middle" x="336" y="-134.1" font-family="Helvetica,sans-Serif" font-size="18.00">GoFBP gosource</text>
</a>
</g>
</g>
<!-- SWL&#45;&gt;GoFBP -->
<g id="edge5" class="edge">
<title>SWL&#45;&gt;GoFBP</title>
<g id="a_edge5"><a xlink:title="0">
<path fill="none" stroke="black" d="M213.13,-209.35C237.7,-195.39 276.68,-173.22 304.14,-157.61"/>
<polygon fill="black" stroke="black" points="306.01,-160.57 312.97,-152.59 302.55,-154.49 306.01,-160.57"/>
</a>
</g>
<text text-anchor="middle" x="289" y="-176.6" font-family="Times,serif" font-size="18.00" fill="red">0 </text>
<text text-anchor="middle" x="306.97" y="-158.19" font-family="Times,serif" font-size="18.00">0</text>
<text text-anchor="middle" x="219.13" y="-194.95" font-family="Times,serif" font-size="18.00">2</text>
</g>
</g>
</svg>
