<?xml version="1.0" encoding="UTF-8" standalone="no"?>
<!DOCTYPE svg PUBLIC "-//W3C//DTD SVG 1.1//EN"
 "http://www.w3.org/Graphics/SVG/1.1/DTD/svg11.dtd">
<!-- Generated by graphviz version 2.43.0 (0)
 -->
<!-- Title: collate.sw Pages: 1 -->
<svg width="631pt" height="370pt"
 viewBox="0.00 0.00 631.00 370.00" xmlns="http://www.w3.org/2000/svg" xmlns:xlink="http://www.w3.org/1999/xlink">
<g id="graph0" class="graph" transform="scale(1 1) rotate(0) translate(4 366)">
<title>collate.sw</title>
<g id="a_graph0"><a xlink:href="https://github.com/tyoung3/sw/blob/master/nds/collate.sw" xlink:title="https://github.com/tyoung3/sw">
<polygon fill="white" stroke="transparent" points="-4,4 -4,-366 627,-366 627,4 -4,4"/>
<text text-anchor="middle" x="311.5" y="-7.8" font-family="Helvetica,sans-Serif" font-size="14.00">https://github.com/tyoung3/sw</text>
</a>
</g>
<g id="clust1" class="cluster">
<title>clustercollate.sw</title>
<g id="a_clust1"><a xlink:href="collate.sw.html" xlink:title="collate.sw">
<polygon fill="none" stroke="black" points="8,-31 8,-354 615,-354 615,-31 8,-31"/>
<text text-anchor="middle" x="311.5" y="-338.8" font-family="Helvetica,sans-Serif" font-size="14.00">collate.sw</text>
</a>
</g>
</g>
<!-- Miss1 -->
<g id="node1" class="node">
<title>Miss1</title>
<g id="a_node1"><a xlink:href="/home/tyoung3/go/mod/sw/html//Print1.html" xlink:title="poc.Print1 ">
<polygon fill="powderblue" stroke="black" points="16.5,-39.5 16.5,-67.5 143.5,-67.5 143.5,-39.5 16.5,-39.5"/>
<text text-anchor="middle" x="80" y="-49.1" font-family="Helvetica,sans-Serif" font-size="18.00">Miss1 Print1</text>
</a>
</g>
</g>
<!-- Miss0 -->
<g id="node2" class="node">
<title>Miss0</title>
<g id="a_node2"><a xlink:href="/home/tyoung3/go/mod/sw/html//Print1.html" xlink:title="poc.Print1 ">
<polygon fill="powderblue" stroke="black" points="161.5,-39.5 161.5,-67.5 288.5,-67.5 288.5,-39.5 161.5,-39.5"/>
<text text-anchor="middle" x="225" y="-49.1" font-family="Helvetica,sans-Serif" font-size="18.00">Miss0 Print1</text>
</a>
</g>
</g>
<!-- Match1 -->
<g id="node3" class="node">
<title>Match1</title>
<g id="a_node3"><a xlink:href="/home/tyoung3/go/mod/sw/html//Print1.html" xlink:title="poc.Print1 ">
<polygon fill="powderblue" stroke="black" points="306.5,-39.5 306.5,-67.5 447.5,-67.5 447.5,-39.5 306.5,-39.5"/>
<text text-anchor="middle" x="377" y="-49.1" font-family="Helvetica,sans-Serif" font-size="18.00">Match1 Print1</text>
</a>
</g>
</g>
<!-- Match0 -->
<g id="node4" class="node">
<title>Match0</title>
<g id="a_node4"><a xlink:href="/home/tyoung3/go/mod/sw/html//Print1.html" xlink:title="poc.Print1 ">
<polygon fill="powderblue" stroke="black" points="465.5,-39.5 465.5,-67.5 606.5,-67.5 606.5,-39.5 465.5,-39.5"/>
<text text-anchor="middle" x="536" y="-49.1" font-family="Helvetica,sans-Serif" font-size="18.00">Match0 Print1</text>
</a>
</g>
</g>
<!-- G2 -->
<g id="node5" class="node">
<title>G2</title>
<g id="a_node5"><a xlink:href="/home/tyoung3/go/mod/sw/html//Gen1.html" xlink:title="poc.Gen1 &#160;&quot;8&quot; &quot;2&quot; &quot;3&quot;">
<polygon fill="powderblue" stroke="black" points="353.5,-294.5 353.5,-322.5 550.5,-322.5 550.5,-294.5 353.5,-294.5"/>
<text text-anchor="middle" x="452" y="-304.1" font-family="Helvetica,sans-Serif" font-size="18.00">G2 Gen1 &quot;8&quot; &quot;2&quot; &quot;3&quot;</text>
</a>
</g>
</g>
<!-- M -->
<g id="node9" class="node">
<title>M</title>
<g id="a_node9"><a xlink:href="/home/tyoung3/go/mod/sw/html//Merge.html" xlink:title="poc.Merge ">
<polygon fill="powderblue" stroke="black" points="347.5,-209.5 347.5,-237.5 442.5,-237.5 442.5,-209.5 347.5,-209.5"/>
<text text-anchor="middle" x="395" y="-219.1" font-family="Helvetica,sans-Serif" font-size="18.00">M Merge</text>
</a>
</g>
</g>
<!-- G2&#45;&gt;M -->
<g id="edge5" class="edge">
<title>G2&#45;&gt;M</title>
<g id="a_edge5"><a xlink:title="3">
<path fill="none" stroke="blue" stroke-width="2" d="M442.84,-294.16C433.9,-281.14 420.14,-261.11 409.67,-245.86"/>
<polygon fill="blue" stroke="blue" stroke-width="2" points="412.49,-243.79 403.95,-237.53 406.72,-247.75 412.49,-243.79"/>
</a>
</g>
<text text-anchor="middle" x="436" y="-261.6" font-family="Times,serif" font-size="18.00" fill="blue">3</text>
<text text-anchor="middle" x="397.95" y="-243.13" font-family="Times,serif" font-size="18.00">1</text>
</g>
<!-- G1 -->
<g id="node6" class="node">
<title>G1</title>
<g id="a_node6"><a xlink:href="/home/tyoung3/go/mod/sw/html//Gen1.html" xlink:title="poc.Gen1 &#160;&quot;5&quot; &quot;5&quot; &quot;1&quot;">
<polygon fill="powderblue" stroke="black" points="138.5,-294.5 138.5,-322.5 335.5,-322.5 335.5,-294.5 138.5,-294.5"/>
<text text-anchor="middle" x="237" y="-304.1" font-family="Helvetica,sans-Serif" font-size="18.00">G1 Gen1 &quot;5&quot; &quot;5&quot; &quot;1&quot;</text>
</a>
</g>
</g>
<!-- G1&#45;&gt;M -->
<g id="edge6" class="edge">
<title>G1&#45;&gt;M</title>
<g id="a_edge6"><a xlink:title="2">
<path fill="none" stroke="blue" stroke-width="2" d="M262.04,-294.35C288.73,-280.32 331.18,-258.03 360.91,-242.41"/>
<polygon fill="blue" stroke="blue" stroke-width="2" points="362.86,-245.34 370.08,-237.59 359.6,-239.14 362.86,-245.34"/>
</a>
</g>
<text text-anchor="middle" x="340" y="-261.6" font-family="Times,serif" font-size="18.00" fill="blue">2</text>
</g>
<!-- G0 -->
<g id="node7" class="node">
<title>G0</title>
<g id="a_node7"><a xlink:href="/home/tyoung3/go/mod/sw/html//Gen1.html" xlink:title="poc.Gen1 &#160;&quot;12&quot; &quot;1&quot; &quot;2&quot;">
<polygon fill="powderblue" stroke="black" points="120.5,-209.5 120.5,-237.5 329.5,-237.5 329.5,-209.5 120.5,-209.5"/>
<text text-anchor="middle" x="225" y="-219.1" font-family="Helvetica,sans-Serif" font-size="18.00">G0 Gen1 &quot;12&quot; &quot;1&quot; &quot;2&quot;</text>
</a>
</g>
</g>
<!-- C -->
<g id="node8" class="node">
<title>C</title>
<g id="a_node8"><a xlink:href="/home/tyoung3/go/mod/sw/html//Collate.html" xlink:title="poc.Collate ">
<polygon fill="powderblue" stroke="black" points="226.5,-124.5 226.5,-152.5 325.5,-152.5 325.5,-124.5 226.5,-124.5"/>
<text text-anchor="middle" x="276" y="-134.1" font-family="Helvetica,sans-Serif" font-size="18.00">C Collate</text>
</a>
</g>
</g>
<!-- G0&#45;&gt;C -->
<g id="edge7" class="edge">
<title>G0&#45;&gt;C</title>
<g id="a_edge7"><a xlink:title="1">
<path fill="none" stroke="blue" stroke-width="2" d="M233.19,-209.16C241.12,-196.26 253.28,-176.48 262.61,-161.29"/>
<polygon fill="blue" stroke="blue" stroke-width="2" points="265.74,-162.88 267.99,-152.53 259.78,-159.22 265.74,-162.88"/>
</a>
</g>
<text text-anchor="middle" x="262" y="-176.6" font-family="Times,serif" font-size="18.00" fill="blue">1</text>
</g>
<!-- C&#45;&gt;Miss1 -->
<g id="edge1" class="edge">
<title>C&#45;&gt;Miss1</title>
<g id="a_edge1"><a xlink:title="7">
<path fill="none" stroke="blue" stroke-width="2" d="M244.94,-124.35C211.25,-110.08 157.34,-87.25 120.39,-71.6"/>
<polygon fill="blue" stroke="blue" stroke-width="2" points="121.48,-68.27 110.91,-67.59 118.76,-74.71 121.48,-68.27"/>
</a>
</g>
<text text-anchor="middle" x="207" y="-91.6" font-family="Times,serif" font-size="18.00" fill="blue">7</text>
<text text-anchor="middle" x="238.94" y="-109.95" font-family="Times,serif" font-size="18.00">5</text>
</g>
<!-- C&#45;&gt;Miss0 -->
<g id="edge2" class="edge">
<title>C&#45;&gt;Miss0</title>
<g id="a_edge2"><a xlink:title="6">
<path fill="none" stroke="blue" stroke-width="2" d="M267.81,-124.16C259.88,-111.26 247.72,-91.48 238.39,-76.29"/>
<polygon fill="blue" stroke="blue" stroke-width="2" points="241.22,-74.22 233.01,-67.53 235.26,-77.88 241.22,-74.22"/>
</a>
</g>
<text text-anchor="middle" x="262" y="-91.6" font-family="Times,serif" font-size="18.00" fill="blue">6</text>
<text text-anchor="middle" x="273.81" y="-109.76" font-family="Times,serif" font-size="18.00">4</text>
</g>
<!-- C&#45;&gt;Match1 -->
<g id="edge3" class="edge">
<title>C&#45;&gt;Match1</title>
<g id="a_edge3"><a xlink:title="5">
<path fill="none" stroke="blue" stroke-width="2" d="M292.23,-124.16C308.74,-110.59 334.52,-89.41 353.31,-73.97"/>
<polygon fill="blue" stroke="blue" stroke-width="2" points="355.64,-76.58 361.15,-67.53 351.2,-71.17 355.64,-76.58"/>
</a>
</g>
<text text-anchor="middle" x="344" y="-91.6" font-family="Times,serif" font-size="18.00" fill="blue">5</text>
<text text-anchor="middle" x="286.23" y="-109.76" font-family="Times,serif" font-size="18.00">3</text>
</g>
<!-- C&#45;&gt;Match0 -->
<g id="edge4" class="edge">
<title>C&#45;&gt;Match0</title>
<g id="a_edge4"><a xlink:title="4">
<path fill="none" stroke="blue" stroke-width="2" d="M316.91,-124.44C362.4,-109.92 435.93,-86.45 485.1,-70.75"/>
<polygon fill="blue" stroke="blue" stroke-width="2" points="486.44,-74 494.9,-67.62 484.31,-67.33 486.44,-74"/>
</a>
</g>
<text text-anchor="middle" x="442" y="-91.6" font-family="Times,serif" font-size="18.00" fill="blue">4</text>
<text text-anchor="middle" x="310.91" y="-110.04" font-family="Times,serif" font-size="18.00">2</text>
</g>
<!-- M&#45;&gt;C -->
<g id="edge8" class="edge">
<title>M&#45;&gt;C</title>
<g id="a_edge8"><a xlink:title="0">
<path fill="none" stroke="blue" stroke-width="2" d="M376.14,-209.35C356.47,-195.63 325.45,-173.99 303.14,-158.43"/>
<polygon fill="blue" stroke="blue" stroke-width="2" points="304.97,-155.44 294.77,-152.59 300.97,-161.18 304.97,-155.44"/>
</a>
</g>
<text text-anchor="middle" x="355" y="-176.6" font-family="Times,serif" font-size="18.00" fill="blue">0</text>
<text text-anchor="middle" x="288.77" y="-158.19" font-family="Times,serif" font-size="18.00">1</text>
<text text-anchor="middle" x="370.14" y="-194.95" font-family="Times,serif" font-size="18.00">2</text>
</g>
</g>
</svg>
